<?xml version="1.0" encoding="UTF-8" standalone="no"?>
<!DOCTYPE svg PUBLIC "-//W3C//DTD SVG 1.1//EN"
 "http://www.w3.org/Graphics/SVG/1.1/DTD/svg11.dtd">
<!-- Generated by graphviz version 2.38.0 (20140413.2041)
 -->
<!-- Title: G Pages: 1 -->
<svg width="604pt" height="908pt"
 viewBox="0.00 0.00 604.00 908.00" xmlns="http://www.w3.org/2000/svg" xmlns:xlink="http://www.w3.org/1999/xlink">
<g id="graph0" class="graph" transform="scale(1 1) rotate(0) translate(4 904)">
<title>G</title>
<polygon fill="white" stroke="none" points="-4,4 -4,-904 600,-904 600,4 -4,4"/>
<g id="clust1" class="cluster"><title>cluster_after_lives</title>
<polygon fill="#b2e9a2" stroke="black" points="268,-712 268,-764 588,-764 588,-712 268,-712"/>
</g>
<!-- Trap Extraction -->
<g id="node1" class="node"><title>Trap Extraction</title>
<polygon fill="grey" stroke="black" stroke-width="2" points="393,-828 251,-828 251,-792 393,-792 393,-828"/>
<text text-anchor="middle" x="322" y="-806.2" font-family="Times,serif" font-size="16.00">Trap Extraction</text>
</g>
<!-- Field record data -->
<g id="node7" class="node"><title>Field record data</title>
<path fill="white" stroke="black" d="M96,-756C96,-756 12,-756 12,-756 6,-756 0,-750 0,-744 0,-744 0,-732 0,-732 0,-726 6,-720 12,-720 12,-720 96,-720 96,-720 102,-720 108,-726 108,-732 108,-732 108,-744 108,-744 108,-750 102,-756 96,-756"/>
<text text-anchor="middle" x="54" y="-735.2" font-family="DroidSans-Bold.ttf" font-size="11.00">Field record data</text>
</g>
<!-- Trap Extraction&#45;&gt;Field record data -->
<g id="edge2" class="edge"><title>Trap Extraction&#45;&gt;Field record data</title>
<path fill="none" stroke="black" d="M250.587,-796.271C210.85,-788.456 160.728,-777.38 117,-764 112.707,-762.686 108.293,-761.209 103.892,-759.646"/>
<polygon fill="black" stroke="black" points="104.918,-756.294 94.3243,-756.117 102.495,-762.861 104.918,-756.294"/>
</g>
<!-- Numbered slide + fly -->
<g id="node8" class="node"><title>Numbered slide + fly</title>
<path fill="white" stroke="black" d="M246,-756C246,-756 138,-756 138,-756 132,-756 126,-750 126,-744 126,-744 126,-732 126,-732 126,-726 132,-720 138,-720 138,-720 246,-720 246,-720 252,-720 258,-726 258,-732 258,-732 258,-744 258,-744 258,-750 252,-756 246,-756"/>
<text text-anchor="middle" x="192" y="-735.2" font-family="DroidSans-Bold.ttf" font-size="11.00">Numbered slide + fly</text>
</g>
<!-- Trap Extraction&#45;&gt;Numbered slide + fly -->
<g id="edge3" class="edge"><title>Trap Extraction&#45;&gt;Numbered slide + fly</title>
<path fill="none" stroke="black" stroke-width="3" d="M290.198,-791.876C272.886,-782.554 251.279,-770.919 232.744,-760.939"/>
<polygon fill="black" stroke="black" stroke-width="3" points="234.388,-757.849 223.924,-756.19 231.069,-764.012 234.388,-757.849"/>
</g>
<!-- Tenerals M+F -->
<g id="node16" class="node"><title>Tenerals M+F</title>
<path fill="white" stroke="black" d="M355.5,-756C355.5,-756 288.5,-756 288.5,-756 282.5,-756 276.5,-750 276.5,-744 276.5,-744 276.5,-732 276.5,-732 276.5,-726 282.5,-720 288.5,-720 288.5,-720 355.5,-720 355.5,-720 361.5,-720 367.5,-726 367.5,-732 367.5,-732 367.5,-744 367.5,-744 367.5,-750 361.5,-756 355.5,-756"/>
<text text-anchor="middle" x="322" y="-735.2" font-family="DroidSans-Bold.ttf" font-size="11.00">Tenerals M+F</text>
</g>
<!-- Trap Extraction&#45;&gt;Tenerals M+F -->
<g id="edge4" class="edge"><title>Trap Extraction&#45;&gt;Tenerals M+F</title>
<path fill="none" stroke="black" d="M322,-791.697C322,-783.983 322,-774.712 322,-766.112"/>
<polygon fill="black" stroke="black" points="325.5,-766.104 322,-756.104 318.5,-766.104 325.5,-766.104"/>
</g>
<!-- Dead Males -->
<g id="node17" class="node"><title>Dead Males</title>
<path fill="white" stroke="black" d="M454,-756C454,-756 398,-756 398,-756 392,-756 386,-750 386,-744 386,-744 386,-732 386,-732 386,-726 392,-720 398,-720 398,-720 454,-720 454,-720 460,-720 466,-726 466,-732 466,-732 466,-744 466,-744 466,-750 460,-756 454,-756"/>
<text text-anchor="middle" x="426" y="-735.2" font-family="DroidSans-Bold.ttf" font-size="11.00">Dead Males</text>
</g>
<!-- Trap Extraction&#45;&gt;Dead Males -->
<g id="edge5" class="edge"><title>Trap Extraction&#45;&gt;Dead Males</title>
<path fill="none" stroke="black" d="M347.441,-791.876C360.787,-782.893 377.324,-771.763 391.778,-762.034"/>
<polygon fill="black" stroke="black" points="394.119,-764.677 400.461,-756.19 390.211,-758.87 394.119,-764.677"/>
</g>
<!-- Dead Females -->
<g id="node18" class="node"><title>Dead Females</title>
<path fill="white" stroke="black" d="M567.5,-756C567.5,-756 496.5,-756 496.5,-756 490.5,-756 484.5,-750 484.5,-744 484.5,-744 484.5,-732 484.5,-732 484.5,-726 490.5,-720 496.5,-720 496.5,-720 567.5,-720 567.5,-720 573.5,-720 579.5,-726 579.5,-732 579.5,-732 579.5,-744 579.5,-744 579.5,-750 573.5,-756 567.5,-756"/>
<text text-anchor="middle" x="532" y="-735.2" font-family="DroidSans-Bold.ttf" font-size="11.00">Dead Females</text>
</g>
<!-- Trap Extraction&#45;&gt;Dead Females -->
<g id="edge6" class="edge"><title>Trap Extraction&#45;&gt;Dead Females</title>
<path fill="none" stroke="black" d="M386.611,-791.967C414.115,-784.21 446.387,-774.435 475,-764 478.452,-762.741 481.992,-761.376 485.536,-759.954"/>
<polygon fill="black" stroke="black" points="486.966,-763.151 494.87,-756.095 484.292,-756.682 486.966,-763.151"/>
</g>
<!-- Labeling -->
<g id="node2" class="node"><title>Labeling</title>
<polygon fill="grey" stroke="black" stroke-width="2" points="237,-396 151,-396 151,-360 237,-360 237,-396"/>
<text text-anchor="middle" x="194" y="-374.2" font-family="Times,serif" font-size="16.00">Labeling</text>
</g>
<!-- Tube Labels -->
<g id="node9" class="node"><title>Tube Labels</title>
<path fill="white" stroke="black" d="M226,-324C226,-324 170,-324 170,-324 164,-324 158,-318 158,-312 158,-312 158,-300 158,-300 158,-294 164,-288 170,-288 170,-288 226,-288 226,-288 232,-288 238,-294 238,-300 238,-300 238,-312 238,-312 238,-318 232,-324 226,-324"/>
<text text-anchor="middle" x="198" y="-303.2" font-family="DroidSans-Bold.ttf" font-size="11.00">Tube Labels</text>
</g>
<!-- Labeling&#45;&gt;Tube Labels -->
<g id="edge12" class="edge"><title>Labeling&#45;&gt;Tube Labels</title>
<path fill="none" stroke="black" d="M194.989,-359.697C195.43,-351.983 195.959,-342.712 196.451,-334.112"/>
<polygon fill="black" stroke="black" points="199.946,-334.288 197.023,-324.104 192.958,-333.888 199.946,-334.288"/>
</g>
<!-- Dissection -->
<g id="node3" class="node"><title>Dissection</title>
<polygon fill="grey" stroke="black" stroke-width="2" points="242.5,-684 141.5,-684 141.5,-648 242.5,-648 242.5,-684"/>
<text text-anchor="middle" x="192" y="-662.2" font-family="Times,serif" font-size="16.00">Dissection</text>
</g>
<!-- Numbered slide + fly + tissues -->
<g id="node10" class="node"><title>Numbered slide + fly + tissues</title>
<path fill="white" stroke="black" d="M274,-612C274,-612 110,-612 110,-612 104,-612 98,-606 98,-600 98,-600 98,-588 98,-588 98,-582 104,-576 110,-576 110,-576 274,-576 274,-576 280,-576 286,-582 286,-588 286,-588 286,-600 286,-600 286,-606 280,-612 274,-612"/>
<text text-anchor="middle" x="192" y="-591.2" font-family="DroidSans-Bold.ttf" font-size="11.00">Numbered slide + fly + tissues</text>
</g>
<!-- Dissection&#45;&gt;Numbered slide + fly + tissues -->
<g id="edge14" class="edge"><title>Dissection&#45;&gt;Numbered slide + fly + tissues</title>
<path fill="none" stroke="black" stroke-width="3" d="M192,-647.697C192,-639.983 192,-630.712 192,-622.112"/>
<polygon fill="black" stroke="black" stroke-width="3" points="195.5,-622.104 192,-612.104 188.5,-622.104 195.5,-622.104"/>
</g>
<!-- Infection detection -->
<g id="node4" class="node"><title>Infection detection</title>
<polygon fill="grey" stroke="black" stroke-width="2" points="276,-540 108,-540 108,-504 276,-504 276,-540"/>
<text text-anchor="middle" x="192" y="-518.2" font-family="Times,serif" font-size="16.00">Infection detection</text>
</g>
<!-- Infection detection&#45;&gt;Numbered slide + fly + tissues -->
<g id="edge16" class="edge"><title>Infection detection&#45;&gt;Numbered slide + fly + tissues</title>
<path fill="none" stroke="black" stroke-width="3" d="M197.895,-540.104C198.701,-547.791 198.937,-557.054 198.604,-565.665"/>
<polygon fill="black" stroke="black" stroke-width="3" points="195.109,-565.48 197.916,-575.697 202.092,-565.96 195.109,-565.48"/>
</g>
<!-- Infection status -->
<g id="node11" class="node"><title>Infection status</title>
<path fill="white" stroke="black" d="M232.5,-468C232.5,-468 155.5,-468 155.5,-468 149.5,-468 143.5,-462 143.5,-456 143.5,-456 143.5,-444 143.5,-444 143.5,-438 149.5,-432 155.5,-432 155.5,-432 232.5,-432 232.5,-432 238.5,-432 244.5,-438 244.5,-444 244.5,-444 244.5,-456 244.5,-456 244.5,-462 238.5,-468 232.5,-468"/>
<text text-anchor="middle" x="194" y="-447.2" font-family="DroidSans-Bold.ttf" font-size="11.00">Infection status</text>
</g>
<!-- Infection detection&#45;&gt;Infection status -->
<g id="edge17" class="edge"><title>Infection detection&#45;&gt;Infection status</title>
<path fill="none" stroke="black" d="M192.494,-503.697C192.715,-495.983 192.98,-486.712 193.225,-478.112"/>
<polygon fill="black" stroke="black" points="196.724,-478.2 193.511,-468.104 189.727,-478 196.724,-478.2"/>
</g>
<!-- Packaging -->
<g id="node5" class="node"><title>Packaging</title>
<polygon fill="grey" stroke="black" stroke-width="2" points="353,-252 255,-252 255,-216 353,-216 353,-252"/>
<text text-anchor="middle" x="304" y="-230.2" font-family="Times,serif" font-size="16.00">Packaging</text>
</g>
<!-- Packaged tissues -->
<g id="node13" class="node"><title>Packaged tissues</title>
<path fill="white" stroke="black" d="M347,-180C347,-180 261,-180 261,-180 255,-180 249,-174 249,-168 249,-168 249,-156 249,-156 249,-150 255,-144 261,-144 261,-144 347,-144 347,-144 353,-144 359,-150 359,-156 359,-156 359,-168 359,-168 359,-174 353,-180 347,-180"/>
<text text-anchor="middle" x="304" y="-159.2" font-family="DroidSans-Bold.ttf" font-size="11.00">Packaged tissues</text>
</g>
<!-- Packaging&#45;&gt;Packaged tissues -->
<g id="edge22" class="edge"><title>Packaging&#45;&gt;Packaged tissues</title>
<path fill="none" stroke="black" stroke-width="3" d="M304,-215.697C304,-207.983 304,-198.712 304,-190.112"/>
<polygon fill="black" stroke="black" stroke-width="3" points="307.5,-190.104 304,-180.104 300.5,-190.104 307.5,-190.104"/>
</g>
<!-- Trap cages -->
<g id="node6" class="node"><title>Trap cages</title>
<path fill="white" stroke="black" d="M348,-900C348,-900 296,-900 296,-900 290,-900 284,-894 284,-888 284,-888 284,-876 284,-876 284,-870 290,-864 296,-864 296,-864 348,-864 348,-864 354,-864 360,-870 360,-876 360,-876 360,-888 360,-888 360,-894 354,-900 348,-900"/>
<text text-anchor="middle" x="322" y="-879.2" font-family="DroidSans-Bold.ttf" font-size="11.00">Trap cages</text>
</g>
<!-- Trap cages&#45;&gt;Trap Extraction -->
<g id="edge1" class="edge"><title>Trap cages&#45;&gt;Trap Extraction</title>
<path fill="none" stroke="black" d="M322,-863.697C322,-855.983 322,-846.712 322,-838.112"/>
<polygon fill="black" stroke="black" points="325.5,-838.104 322,-828.104 318.5,-838.104 325.5,-838.104"/>
</g>
<!-- Field record data&#45;&gt;Labeling -->
<g id="edge7" class="edge"><title>Field record data&#45;&gt;Labeling</title>
<path fill="none" stroke="black" d="M55.5805,-719.968C57.912,-693.332 62,-640.186 62,-595 62,-595 62,-595 62,-521 62,-467.403 113.07,-425.543 151.678,-401.555"/>
<polygon fill="black" stroke="black" points="153.926,-404.287 160.691,-396.133 150.318,-398.289 153.926,-404.287"/>
</g>
<!-- Numbered slide + fly&#45;&gt;Dissection -->
<g id="edge8" class="edge"><title>Numbered slide + fly&#45;&gt;Dissection</title>
<path fill="none" stroke="black" stroke-width="3" d="M192,-719.697C192,-711.983 192,-702.712 192,-694.112"/>
<polygon fill="black" stroke="black" stroke-width="3" points="195.5,-694.104 192,-684.104 188.5,-694.104 195.5,-694.104"/>
</g>
<!-- Tube Labels&#45;&gt;Packaging -->
<g id="edge13" class="edge"><title>Tube Labels&#45;&gt;Packaging</title>
<path fill="none" stroke="black" d="M223.931,-287.876C237.662,-278.808 254.706,-267.552 269.536,-257.759"/>
<polygon fill="black" stroke="black" points="271.554,-260.621 277.97,-252.19 267.696,-254.78 271.554,-260.621"/>
</g>
<!-- Numbered slide + fly + tissues&#45;&gt;Infection detection -->
<g id="edge15" class="edge"><title>Numbered slide + fly + tissues&#45;&gt;Infection detection</title>
<path fill="none" stroke="black" stroke-width="3" d="M186.084,-575.697C185.289,-567.983 185.062,-558.712 185.405,-550.112"/>
<polygon fill="black" stroke="black" stroke-width="3" points="188.898,-550.324 186.105,-540.104 181.915,-549.836 188.898,-550.324"/>
</g>
<!-- Numbered slide + fly + tissues&#45;&gt;Packaging -->
<g id="edge21" class="edge"><title>Numbered slide + fly + tissues&#45;&gt;Packaging</title>
<path fill="none" stroke="black" stroke-width="3" d="M238.874,-575.872C255.764,-567.495 273.479,-555.749 285,-540 308.88,-507.355 304,-491.447 304,-451 304,-451 304,-451 304,-377 304,-336.996 304,-290.653 304,-262.08"/>
<polygon fill="black" stroke="black" stroke-width="3" points="307.5,-262.049 304,-252.049 300.5,-262.049 307.5,-262.049"/>
</g>
<!-- Infection status&#45;&gt;Labeling -->
<g id="edge19" class="edge"><title>Infection status&#45;&gt;Labeling</title>
<path fill="none" stroke="black" d="M194,-431.697C194,-423.983 194,-414.712 194,-406.112"/>
<polygon fill="black" stroke="black" points="197.5,-406.104 194,-396.104 190.5,-406.104 197.5,-406.104"/>
</g>
<!-- Infection status&#45;&gt;Packaging -->
<g id="edge18" class="edge"><title>Infection status&#45;&gt;Packaging</title>
<path fill="none" stroke="black" d="M214.694,-431.82C225.233,-422.186 237.567,-409.427 246,-396 260.361,-373.136 283.567,-301.58 295.819,-262"/>
<polygon fill="black" stroke="black" points="299.234,-262.799 298.827,-252.212 292.543,-260.743 299.234,-262.799"/>
</g>
<!-- Empty tubes -->
<g id="node12" class="node"><title>Empty tubes</title>
<path fill="white" stroke="black" d="M128,-324C128,-324 66,-324 66,-324 60,-324 54,-318 54,-312 54,-312 54,-300 54,-300 54,-294 60,-288 66,-288 66,-288 128,-288 128,-288 134,-288 140,-294 140,-300 140,-300 140,-312 140,-312 140,-318 134,-324 128,-324"/>
<text text-anchor="middle" x="97" y="-303.2" font-family="DroidSans-Bold.ttf" font-size="11.00">Empty tubes</text>
</g>
<!-- Empty tubes&#45;&gt;Packaging -->
<g id="edge20" class="edge"><title>Empty tubes&#45;&gt;Packaging</title>
<path fill="none" stroke="black" d="M140.142,-290.411C170.554,-280.127 211.652,-266.229 245.08,-254.925"/>
<polygon fill="black" stroke="black" points="246.386,-258.178 254.738,-251.659 244.144,-251.547 246.386,-258.178"/>
</g>
<!-- Tube sealing -->
<g id="node14" class="node"><title>Tube sealing</title>
<polygon fill="grey" stroke="black" stroke-width="2" points="363.5,-108 244.5,-108 244.5,-72 363.5,-72 363.5,-108"/>
<text text-anchor="middle" x="304" y="-86.2" font-family="Times,serif" font-size="16.00">Tube sealing</text>
</g>
<!-- Packaged tissues&#45;&gt;Tube sealing -->
<g id="edge23" class="edge"><title>Packaged tissues&#45;&gt;Tube sealing</title>
<path fill="none" stroke="black" stroke-width="3" d="M304,-143.697C304,-135.983 304,-126.712 304,-118.112"/>
<polygon fill="black" stroke="black" stroke-width="3" points="307.5,-118.104 304,-108.104 300.5,-118.104 307.5,-118.104"/>
</g>
<!-- Sealed tubes -->
<g id="node15" class="node"><title>Sealed tubes</title>
<path fill="white" stroke="black" d="M336,-36C336,-36 272,-36 272,-36 266,-36 260,-30 260,-24 260,-24 260,-12 260,-12 260,-6 266,-0 272,-0 272,-0 336,-0 336,-0 342,-0 348,-6 348,-12 348,-12 348,-24 348,-24 348,-30 342,-36 336,-36"/>
<text text-anchor="middle" x="304" y="-15.2" font-family="DroidSans-Bold.ttf" font-size="11.00">Sealed tubes</text>
</g>
<!-- Tube sealing&#45;&gt;Sealed tubes -->
<g id="edge24" class="edge"><title>Tube sealing&#45;&gt;Sealed tubes</title>
<path fill="none" stroke="black" stroke-width="3" d="M304,-71.6966C304,-63.9827 304,-54.7125 304,-46.1124"/>
<polygon fill="black" stroke="black" stroke-width="3" points="307.5,-46.1043 304,-36.1043 300.5,-46.1044 307.5,-46.1043"/>
</g>
<!-- Tenerals M+F&#45;&gt;Packaging -->
<g id="edge9" class="edge"><title>Tenerals M+F&#45;&gt;Packaging</title>
<path fill="none" stroke="black" d="M326.047,-719.622C331.891,-692.967 342,-640.311 342,-595 342,-595 342,-595 342,-377 342,-335.633 326.765,-289.722 315.588,-261.605"/>
<polygon fill="black" stroke="black" points="318.721,-260.019 311.69,-252.093 312.244,-262.673 318.721,-260.019"/>
</g>
<!-- Dead Males&#45;&gt;Packaging -->
<g id="edge10" class="edge"><title>Dead Males&#45;&gt;Packaging</title>
<path fill="none" stroke="black" d="M421.346,-719.658C414.625,-693.049 403,-640.453 403,-595 403,-595 403,-595 403,-377 403,-328.378 363.458,-284.497 334.355,-258.784"/>
<polygon fill="black" stroke="black" points="336.336,-255.873 326.465,-252.025 331.782,-261.189 336.336,-255.873"/>
</g>
<!-- Dead Females&#45;&gt;Packaging -->
<g id="edge11" class="edge"><title>Dead Females&#45;&gt;Packaging</title>
<path fill="none" stroke="black" d="M525.12,-719.829C515.185,-693.444 498,-641.136 498,-595 498,-595 498,-595 498,-377 498,-309.234 419.969,-270.308 362.883,-250.898"/>
<polygon fill="black" stroke="black" points="363.798,-247.515 353.205,-247.723 361.616,-254.166 363.798,-247.515"/>
</g>
</g>
</svg>
