<?xml version="1.0" encoding="utf-8" standalone="no"?>
<!DOCTYPE svg PUBLIC "-//W3C//DTD SVG 1.1//EN"
  "http://www.w3.org/Graphics/SVG/1.1/DTD/svg11.dtd">
<!-- Created with matplotlib (http://matplotlib.org/) -->
<svg height="468pt" version="1.1" viewBox="0 0 648 468" width="648pt" xmlns="http://www.w3.org/2000/svg" xmlns:xlink="http://www.w3.org/1999/xlink">
 <defs>
  <style type="text/css">
*{stroke-linecap:butt;stroke-linejoin:round;}
  </style>
 </defs>
 <g id="figure_1">
  <g id="patch_1">
   <path d="
M0 468.992
L648.189 468.992
L648.189 0
L0 0
z
" style="fill:#ffffff;"/>
  </g>
  <g id="axes_1">
   <g id="patch_2">
    <path d="
M35.9503 422.558
L616.27 422.558
L616.27 23.588
L35.9503 23.588
z
" style="fill:#ffffff;"/>
   </g>
   <g id="matplotlib.axis_1">
    <g id="xtick_1">
     <g id="line2d_1">
      <path clip-path="url(#p379d521dfb)" d="
M35.9503 422.558
L35.9503 23.588" style="fill:none;stroke:#cccccc;stroke-linecap:round;stroke-width:1.3;"/>
     </g>
     <g id="line2d_2">
      <defs>
       <path d="
M0 0
L0 0" id="me6a419ab46" style="stroke:#262626;stroke-width:1.3;"/>
      </defs>
      <g>
       <use style="fill:#262626;stroke:#262626;stroke-width:1.3;" x="35.9503125" xlink:href="#me6a419ab46" y="422.558"/>
      </g>
     </g>
     <g id="line2d_3">
      <g>
       <use style="fill:#262626;stroke:#262626;stroke-width:1.3;" x="35.9503125" xlink:href="#me6a419ab46" y="23.588"/>
      </g>
     </g>
     <g id="text_1">
      <!-- 0 -->
      <defs>
       <path d="
M4.15625 35.2969
Q4.15625 48 6.76562 55.7344
Q9.375 63.4844 14.5156 67.6719
Q19.6719 71.875 27.4844 71.875
Q33.25 71.875 37.5938 69.5469
Q41.9375 67.2344 44.7656 62.8594
Q47.6094 58.5 49.2188 52.2188
Q50.8281 45.9531 50.8281 35.2969
Q50.8281 22.7031 48.2344 14.9688
Q45.6562 7.23438 40.5 3
Q35.3594 -1.21875 27.4844 -1.21875
Q17.1406 -1.21875 11.2344 6.20312
Q4.15625 15.1406 4.15625 35.2969
M13.1875 35.2969
Q13.1875 17.6719 17.3125 11.8281
Q21.4375 6 27.4844 6
Q33.5469 6 37.6719 11.8594
Q41.7969 17.7188 41.7969 35.2969
Q41.7969 52.9844 37.6719 58.7812
Q33.5469 64.5938 27.3906 64.5938
Q21.3438 64.5938 17.7188 59.4688
Q13.1875 52.9375 13.1875 35.2969" id="ArialMT-30"/>
      </defs>
      <g style="fill:#262626;" transform="translate(32.916640625 440.96315625)scale(0.13 -0.13)">
       <use xlink:href="#ArialMT-30"/>
      </g>
     </g>
    </g>
    <g id="xtick_2">
     <g id="line2d_4">
      <path clip-path="url(#p379d521dfb)" d="
M118.853 422.558
L118.853 23.588" style="fill:none;stroke:#cccccc;stroke-linecap:round;stroke-width:1.3;"/>
     </g>
     <g id="line2d_5">
      <g>
       <use style="fill:#262626;stroke:#262626;stroke-width:1.3;" x="118.853169643" xlink:href="#me6a419ab46" y="422.558"/>
      </g>
     </g>
     <g id="line2d_6">
      <g>
       <use style="fill:#262626;stroke:#262626;stroke-width:1.3;" x="118.853169643" xlink:href="#me6a419ab46" y="23.588"/>
      </g>
     </g>
     <g id="text_2">
      <!-- 500000 -->
      <defs>
       <path d="
M4.15625 18.75
L13.375 19.5312
Q14.4062 12.7969 18.1406 9.39062
Q21.875 6 27.1562 6
Q33.5 6 37.8906 10.7812
Q42.2812 15.5781 42.2812 23.4844
Q42.2812 31 38.0625 35.3438
Q33.8438 39.7031 27 39.7031
Q22.75 39.7031 19.3281 37.7656
Q15.9219 35.8438 13.9688 32.7656
L5.71875 33.8438
L12.6406 70.6094
L48.25 70.6094
L48.25 62.2031
L19.6719 62.2031
L15.8281 42.9688
Q22.2656 47.4688 29.3438 47.4688
Q38.7188 47.4688 45.1562 40.9688
Q51.6094 34.4688 51.6094 24.2656
Q51.6094 14.5469 45.9531 7.46875
Q39.0625 -1.21875 27.1562 -1.21875
Q17.3906 -1.21875 11.2031 4.25
Q5.03125 9.71875 4.15625 18.75" id="ArialMT-35"/>
      </defs>
      <g style="fill:#262626;" transform="translate(97.7464508929 440.96315625)scale(0.13 -0.13)">
       <use xlink:href="#ArialMT-35"/>
       <use x="55.615234375" xlink:href="#ArialMT-30"/>
       <use x="111.23046875" xlink:href="#ArialMT-30"/>
       <use x="166.845703125" xlink:href="#ArialMT-30"/>
       <use x="222.4609375" xlink:href="#ArialMT-30"/>
       <use x="278.076171875" xlink:href="#ArialMT-30"/>
      </g>
     </g>
    </g>
    <g id="xtick_3">
     <g id="line2d_7">
      <path clip-path="url(#p379d521dfb)" d="
M201.756 422.558
L201.756 23.588" style="fill:none;stroke:#cccccc;stroke-linecap:round;stroke-width:1.3;"/>
     </g>
     <g id="line2d_8">
      <g>
       <use style="fill:#262626;stroke:#262626;stroke-width:1.3;" x="201.756026786" xlink:href="#me6a419ab46" y="422.558"/>
      </g>
     </g>
     <g id="line2d_9">
      <g>
       <use style="fill:#262626;stroke:#262626;stroke-width:1.3;" x="201.756026786" xlink:href="#me6a419ab46" y="23.588"/>
      </g>
     </g>
     <g id="text_3">
      <!-- 1000000 -->
      <defs>
       <path d="
M37.25 0
L28.4688 0
L28.4688 56
Q25.2969 52.9844 20.1406 49.9531
Q14.9844 46.9219 10.8906 45.4062
L10.8906 53.9062
Q18.2656 57.375 23.7812 62.2969
Q29.2969 67.2344 31.5938 71.875
L37.25 71.875
z
" id="ArialMT-31"/>
      </defs>
      <g style="fill:#262626;" transform="translate(177.472433036 440.96315625)scale(0.13 -0.13)">
       <use xlink:href="#ArialMT-31"/>
       <use x="55.615234375" xlink:href="#ArialMT-30"/>
       <use x="111.23046875" xlink:href="#ArialMT-30"/>
       <use x="166.845703125" xlink:href="#ArialMT-30"/>
       <use x="222.4609375" xlink:href="#ArialMT-30"/>
       <use x="278.076171875" xlink:href="#ArialMT-30"/>
       <use x="333.69140625" xlink:href="#ArialMT-30"/>
      </g>
     </g>
    </g>
    <g id="xtick_4">
     <g id="line2d_10">
      <path clip-path="url(#p379d521dfb)" d="
M284.659 422.558
L284.659 23.588" style="fill:none;stroke:#cccccc;stroke-linecap:round;stroke-width:1.3;"/>
     </g>
     <g id="line2d_11">
      <g>
       <use style="fill:#262626;stroke:#262626;stroke-width:1.3;" x="284.658883929" xlink:href="#me6a419ab46" y="422.558"/>
      </g>
     </g>
     <g id="line2d_12">
      <g>
       <use style="fill:#262626;stroke:#262626;stroke-width:1.3;" x="284.658883929" xlink:href="#me6a419ab46" y="23.588"/>
      </g>
     </g>
     <g id="text_4">
      <!-- 1500000 -->
      <g style="fill:#262626;" transform="translate(260.375290179 440.96315625)scale(0.13 -0.13)">
       <use xlink:href="#ArialMT-31"/>
       <use x="55.615234375" xlink:href="#ArialMT-35"/>
       <use x="111.23046875" xlink:href="#ArialMT-30"/>
       <use x="166.845703125" xlink:href="#ArialMT-30"/>
       <use x="222.4609375" xlink:href="#ArialMT-30"/>
       <use x="278.076171875" xlink:href="#ArialMT-30"/>
       <use x="333.69140625" xlink:href="#ArialMT-30"/>
      </g>
     </g>
    </g>
    <g id="xtick_5">
     <g id="line2d_13">
      <path clip-path="url(#p379d521dfb)" d="
M367.562 422.558
L367.562 23.588" style="fill:none;stroke:#cccccc;stroke-linecap:round;stroke-width:1.3;"/>
     </g>
     <g id="line2d_14">
      <g>
       <use style="fill:#262626;stroke:#262626;stroke-width:1.3;" x="367.561741071" xlink:href="#me6a419ab46" y="422.558"/>
      </g>
     </g>
     <g id="line2d_15">
      <g>
       <use style="fill:#262626;stroke:#262626;stroke-width:1.3;" x="367.561741071" xlink:href="#me6a419ab46" y="23.588"/>
      </g>
     </g>
     <g id="text_5">
      <!-- 2000000 -->
      <defs>
       <path d="
M50.3438 8.45312
L50.3438 0
L3.03125 0
Q2.9375 3.17188 4.04688 6.10938
Q5.85938 10.9375 9.82812 15.625
Q13.8125 20.3125 21.3438 26.4688
Q33.0156 36.0312 37.1094 41.625
Q41.2188 47.2188 41.2188 52.2031
Q41.2188 57.4219 37.4688 61
Q33.7344 64.5938 27.7344 64.5938
Q21.3906 64.5938 17.5781 60.7812
Q13.7656 56.9844 13.7188 50.25
L4.6875 51.1719
Q5.60938 61.2812 11.6562 66.5781
Q17.7188 71.875 27.9375 71.875
Q38.2344 71.875 44.2344 66.1562
Q50.25 60.4531 50.25 52
Q50.25 47.7031 48.4844 43.5469
Q46.7344 39.4062 42.6562 34.8125
Q38.5781 30.2188 29.1094 22.2188
Q21.1875 15.5781 18.9375 13.2031
Q16.7031 10.8438 15.2344 8.45312
z
" id="ArialMT-32"/>
      </defs>
      <g style="fill:#262626;" transform="translate(342.761194196 440.96315625)scale(0.13 -0.13)">
       <use xlink:href="#ArialMT-32"/>
       <use x="55.615234375" xlink:href="#ArialMT-30"/>
       <use x="111.23046875" xlink:href="#ArialMT-30"/>
       <use x="166.845703125" xlink:href="#ArialMT-30"/>
       <use x="222.4609375" xlink:href="#ArialMT-30"/>
       <use x="278.076171875" xlink:href="#ArialMT-30"/>
       <use x="333.69140625" xlink:href="#ArialMT-30"/>
      </g>
     </g>
    </g>
    <g id="xtick_6">
     <g id="line2d_16">
      <path clip-path="url(#p379d521dfb)" d="
M450.465 422.558
L450.465 23.588" style="fill:none;stroke:#cccccc;stroke-linecap:round;stroke-width:1.3;"/>
     </g>
     <g id="line2d_17">
      <g>
       <use style="fill:#262626;stroke:#262626;stroke-width:1.3;" x="450.464598214" xlink:href="#me6a419ab46" y="422.558"/>
      </g>
     </g>
     <g id="line2d_18">
      <g>
       <use style="fill:#262626;stroke:#262626;stroke-width:1.3;" x="450.464598214" xlink:href="#me6a419ab46" y="23.588"/>
      </g>
     </g>
     <g id="text_6">
      <!-- 2500000 -->
      <g style="fill:#262626;" transform="translate(425.664051339 440.96315625)scale(0.13 -0.13)">
       <use xlink:href="#ArialMT-32"/>
       <use x="55.615234375" xlink:href="#ArialMT-35"/>
       <use x="111.23046875" xlink:href="#ArialMT-30"/>
       <use x="166.845703125" xlink:href="#ArialMT-30"/>
       <use x="222.4609375" xlink:href="#ArialMT-30"/>
       <use x="278.076171875" xlink:href="#ArialMT-30"/>
       <use x="333.69140625" xlink:href="#ArialMT-30"/>
      </g>
     </g>
    </g>
    <g id="xtick_7">
     <g id="line2d_19">
      <path clip-path="url(#p379d521dfb)" d="
M533.367 422.558
L533.367 23.588" style="fill:none;stroke:#cccccc;stroke-linecap:round;stroke-width:1.3;"/>
     </g>
     <g id="line2d_20">
      <g>
       <use style="fill:#262626;stroke:#262626;stroke-width:1.3;" x="533.367455357" xlink:href="#me6a419ab46" y="422.558"/>
      </g>
     </g>
     <g id="line2d_21">
      <g>
       <use style="fill:#262626;stroke:#262626;stroke-width:1.3;" x="533.367455357" xlink:href="#me6a419ab46" y="23.588"/>
      </g>
     </g>
     <g id="text_7">
      <!-- 3000000 -->
      <defs>
       <path d="
M4.20312 18.8906
L12.9844 20.0625
Q14.5 12.5938 18.1406 9.29688
Q21.7812 6 27 6
Q33.2031 6 37.4688 10.2969
Q41.75 14.5938 41.75 20.9531
Q41.75 27 37.7969 30.9219
Q33.8438 34.8594 27.7344 34.8594
Q25.25 34.8594 21.5312 33.8906
L22.5156 41.6094
Q23.3906 41.5 23.9219 41.5
Q29.5469 41.5 34.0312 44.4219
Q38.5312 47.3594 38.5312 53.4688
Q38.5312 58.2969 35.25 61.4688
Q31.9844 64.6562 26.8125 64.6562
Q21.6875 64.6562 18.2656 61.4219
Q14.8438 58.2031 13.875 51.7656
L5.07812 53.3281
Q6.6875 62.1562 12.3906 67.0156
Q18.1094 71.875 26.6094 71.875
Q32.4688 71.875 37.3906 69.3594
Q42.3281 66.8438 44.9375 62.5
Q47.5625 58.1562 47.5625 53.2656
Q47.5625 48.6406 45.0625 44.8281
Q42.5781 41.0156 37.7031 38.7656
Q44.0469 37.3125 47.5625 32.6875
Q51.0781 28.0781 51.0781 21.1406
Q51.0781 11.7656 44.2344 5.25
Q37.4062 -1.26562 26.9531 -1.26562
Q17.5312 -1.26562 11.2969 4.34375
Q5.07812 9.96875 4.20312 18.8906" id="ArialMT-33"/>
      </defs>
      <g style="fill:#262626;" transform="translate(508.649174107 440.96315625)scale(0.13 -0.13)">
       <use xlink:href="#ArialMT-33"/>
       <use x="55.615234375" xlink:href="#ArialMT-30"/>
       <use x="111.23046875" xlink:href="#ArialMT-30"/>
       <use x="166.845703125" xlink:href="#ArialMT-30"/>
       <use x="222.4609375" xlink:href="#ArialMT-30"/>
       <use x="278.076171875" xlink:href="#ArialMT-30"/>
       <use x="333.69140625" xlink:href="#ArialMT-30"/>
      </g>
     </g>
    </g>
    <g id="xtick_8">
     <g id="line2d_22">
      <path clip-path="url(#p379d521dfb)" d="
M616.27 422.558
L616.27 23.588" style="fill:none;stroke:#cccccc;stroke-linecap:round;stroke-width:1.3;"/>
     </g>
     <g id="line2d_23">
      <g>
       <use style="fill:#262626;stroke:#262626;stroke-width:1.3;" x="616.2703125" xlink:href="#me6a419ab46" y="422.558"/>
      </g>
     </g>
     <g id="line2d_24">
      <g>
       <use style="fill:#262626;stroke:#262626;stroke-width:1.3;" x="616.2703125" xlink:href="#me6a419ab46" y="23.588"/>
      </g>
     </g>
     <g id="text_8">
      <!-- 3500000 -->
      <g style="fill:#262626;" transform="translate(591.55203125 440.96315625)scale(0.13 -0.13)">
       <use xlink:href="#ArialMT-33"/>
       <use x="55.615234375" xlink:href="#ArialMT-35"/>
       <use x="111.23046875" xlink:href="#ArialMT-30"/>
       <use x="166.845703125" xlink:href="#ArialMT-30"/>
       <use x="222.4609375" xlink:href="#ArialMT-30"/>
       <use x="278.076171875" xlink:href="#ArialMT-30"/>
       <use x="333.69140625" xlink:href="#ArialMT-30"/>
      </g>
     </g>
    </g>
    <g id="text_9">
     <!-- length -->
     <defs>
      <path d="
M4.98438 -4.29688
L13.5312 -5.5625
Q14.0625 -9.51562 16.5 -11.3281
Q19.7812 -13.7656 25.4375 -13.7656
Q31.5469 -13.7656 34.8594 -11.3281
Q38.1875 -8.89062 39.3594 -4.5
Q40.0469 -1.8125 39.9844 6.78125
Q34.2344 0 25.6406 0
Q14.9375 0 9.07812 7.71875
Q3.21875 15.4375 3.21875 26.2188
Q3.21875 33.6406 5.90625 39.9062
Q8.59375 46.1875 13.6875 49.6094
Q18.7969 53.0312 25.6875 53.0312
Q34.8594 53.0312 40.8281 45.6094
L40.8281 51.8594
L48.9219 51.8594
L48.9219 7.03125
Q48.9219 -5.07812 46.4531 -10.125
Q44 -15.1875 38.6406 -18.1094
Q33.2969 -21.0469 25.4844 -21.0469
Q16.2188 -21.0469 10.5 -16.875
Q4.78125 -12.7031 4.98438 -4.29688
M12.25 26.8594
Q12.25 16.6562 16.2969 11.9688
Q20.3594 7.28125 26.4688 7.28125
Q32.5156 7.28125 36.6094 11.9375
Q40.7188 16.6094 40.7188 26.5625
Q40.7188 36.0781 36.5 40.9062
Q32.2812 45.75 26.3125 45.75
Q20.4531 45.75 16.3438 40.9844
Q12.25 36.2344 12.25 26.8594" id="ArialMT-67"/>
      <path d="
M42.0938 16.7031
L51.1719 15.5781
Q49.0312 7.625 43.2188 3.21875
Q37.4062 -1.17188 28.375 -1.17188
Q17 -1.17188 10.3281 5.82812
Q3.65625 12.8438 3.65625 25.4844
Q3.65625 38.5781 10.3906 45.7969
Q17.1406 53.0312 27.875 53.0312
Q38.2812 53.0312 44.875 45.9531
Q51.4688 38.875 51.4688 26.0312
Q51.4688 25.25 51.4219 23.6875
L12.75 23.6875
Q13.2344 15.1406 17.5781 10.5938
Q21.9219 6.0625 28.4219 6.0625
Q33.25 6.0625 36.6719 8.59375
Q40.0938 11.1406 42.0938 16.7031
M13.2344 30.9062
L42.1875 30.9062
Q41.6094 37.4531 38.875 40.7188
Q34.6719 45.7969 27.9844 45.7969
Q21.9219 45.7969 17.7969 41.75
Q13.6719 37.7031 13.2344 30.9062" id="ArialMT-65"/>
      <path d="
M25.7812 7.85938
L27.0469 0.09375
Q23.3438 -0.6875 20.4062 -0.6875
Q15.625 -0.6875 12.9844 0.828125
Q10.3594 2.34375 9.28125 4.8125
Q8.20312 7.28125 8.20312 15.1875
L8.20312 45.0156
L1.76562 45.0156
L1.76562 51.8594
L8.20312 51.8594
L8.20312 64.7031
L16.9375 69.9688
L16.9375 51.8594
L25.7812 51.8594
L25.7812 45.0156
L16.9375 45.0156
L16.9375 14.7031
Q16.9375 10.9375 17.4062 9.85938
Q17.875 8.79688 18.9219 8.15625
Q19.9688 7.51562 21.9219 7.51562
Q23.3906 7.51562 25.7812 7.85938" id="ArialMT-74"/>
      <path d="
M6.59375 0
L6.59375 71.5781
L15.375 71.5781
L15.375 45.9062
Q21.5312 53.0312 30.9062 53.0312
Q36.6719 53.0312 40.9219 50.75
Q45.1719 48.4844 47 44.4844
Q48.8281 40.4844 48.8281 32.8594
L48.8281 0
L40.0469 0
L40.0469 32.8594
Q40.0469 39.4531 37.1875 42.4531
Q34.3281 45.4531 29.1094 45.4531
Q25.2031 45.4531 21.75 43.4219
Q18.3125 41.4062 16.8438 37.9375
Q15.375 34.4688 15.375 28.375
L15.375 0
z
" id="ArialMT-68"/>
      <path d="
M6.39062 0
L6.39062 71.5781
L15.1875 71.5781
L15.1875 0
z
" id="ArialMT-6c"/>
      <path d="
M6.59375 0
L6.59375 51.8594
L14.5 51.8594
L14.5 44.4844
Q20.2188 53.0312 31 53.0312
Q35.6875 53.0312 39.625 51.3438
Q43.5625 49.6562 45.5156 46.9219
Q47.4688 44.1875 48.25 40.4375
Q48.7344 37.9844 48.7344 31.8906
L48.7344 0
L39.9375 0
L39.9375 31.5469
Q39.9375 36.9219 38.9062 39.5781
Q37.8906 42.2344 35.2812 43.8125
Q32.6719 45.4062 29.1562 45.4062
Q23.5312 45.4062 19.4531 41.8438
Q15.375 38.2812 15.375 28.3281
L15.375 0
z
" id="ArialMT-6e"/>
     </defs>
     <g style="fill:#262626;" transform="translate(307.572820313 458.782578125)scale(0.143 -0.143)">
      <use xlink:href="#ArialMT-6c"/>
      <use x="22.216796875" xlink:href="#ArialMT-65"/>
      <use x="77.83203125" xlink:href="#ArialMT-6e"/>
      <use x="133.447265625" xlink:href="#ArialMT-67"/>
      <use x="189.0625" xlink:href="#ArialMT-74"/>
      <use x="216.845703125" xlink:href="#ArialMT-68"/>
     </g>
    </g>
   </g>
   <g id="matplotlib.axis_2">
    <g id="ytick_1">
     <g id="line2d_25">
      <path clip-path="url(#p379d521dfb)" d="
M35.9503 422.558
L616.27 422.558" style="fill:none;stroke:#cccccc;stroke-linecap:round;stroke-width:1.3;"/>
     </g>
     <g id="line2d_26">
      <g>
       <use style="fill:#262626;stroke:#262626;stroke-width:1.3;" x="35.9503125" xlink:href="#me6a419ab46" y="422.558"/>
      </g>
     </g>
     <g id="line2d_27">
      <g>
       <use style="fill:#262626;stroke:#262626;stroke-width:1.3;" x="616.2703125" xlink:href="#me6a419ab46" y="422.558"/>
      </g>
     </g>
     <g id="text_10">
      <!-- 0 -->
      <g style="fill:#262626;" transform="translate(20.78296875 425.918703125)scale(0.13 -0.13)">
       <use xlink:href="#ArialMT-30"/>
      </g>
     </g>
    </g>
    <g id="ytick_2">
     <g id="line2d_28">
      <path clip-path="url(#p379d521dfb)" d="
M35.9503 356.063
L616.27 356.063" style="fill:none;stroke:#cccccc;stroke-linecap:round;stroke-width:1.3;"/>
     </g>
     <g id="line2d_29">
      <g>
       <use style="fill:#262626;stroke:#262626;stroke-width:1.3;" x="35.9503125" xlink:href="#me6a419ab46" y="356.063"/>
      </g>
     </g>
     <g id="line2d_30">
      <g>
       <use style="fill:#262626;stroke:#262626;stroke-width:1.3;" x="616.2703125" xlink:href="#me6a419ab46" y="356.063"/>
      </g>
     </g>
     <g id="text_11">
      <!-- 20 -->
      <g style="fill:#262626;" transform="translate(13.3953125 359.423703125)scale(0.13 -0.13)">
       <use xlink:href="#ArialMT-32"/>
       <use x="55.615234375" xlink:href="#ArialMT-30"/>
      </g>
     </g>
    </g>
    <g id="ytick_3">
     <g id="line2d_31">
      <path clip-path="url(#p379d521dfb)" d="
M35.9503 289.568
L616.27 289.568" style="fill:none;stroke:#cccccc;stroke-linecap:round;stroke-width:1.3;"/>
     </g>
     <g id="line2d_32">
      <g>
       <use style="fill:#262626;stroke:#262626;stroke-width:1.3;" x="35.9503125" xlink:href="#me6a419ab46" y="289.568"/>
      </g>
     </g>
     <g id="line2d_33">
      <g>
       <use style="fill:#262626;stroke:#262626;stroke-width:1.3;" x="616.2703125" xlink:href="#me6a419ab46" y="289.568"/>
      </g>
     </g>
     <g id="text_12">
      <!-- 40 -->
      <defs>
       <path d="
M32.3281 0
L32.3281 17.1406
L1.26562 17.1406
L1.26562 25.2031
L33.9375 71.5781
L41.1094 71.5781
L41.1094 25.2031
L50.7812 25.2031
L50.7812 17.1406
L41.1094 17.1406
L41.1094 0
z

M32.3281 25.2031
L32.3281 57.4688
L9.90625 25.2031
z
" id="ArialMT-34"/>
      </defs>
      <g style="fill:#262626;" transform="translate(13.17796875 292.928703125)scale(0.13 -0.13)">
       <use xlink:href="#ArialMT-34"/>
       <use x="55.615234375" xlink:href="#ArialMT-30"/>
      </g>
     </g>
    </g>
    <g id="ytick_4">
     <g id="line2d_34">
      <path clip-path="url(#p379d521dfb)" d="
M35.9503 223.073
L616.27 223.073" style="fill:none;stroke:#cccccc;stroke-linecap:round;stroke-width:1.3;"/>
     </g>
     <g id="line2d_35">
      <g>
       <use style="fill:#262626;stroke:#262626;stroke-width:1.3;" x="35.9503125" xlink:href="#me6a419ab46" y="223.073"/>
      </g>
     </g>
     <g id="line2d_36">
      <g>
       <use style="fill:#262626;stroke:#262626;stroke-width:1.3;" x="616.2703125" xlink:href="#me6a419ab46" y="223.073"/>
      </g>
     </g>
     <g id="text_13">
      <!-- 60 -->
      <defs>
       <path d="
M49.75 54.0469
L41.0156 53.375
Q39.8438 58.5469 37.7031 60.8906
Q34.125 64.6562 28.9062 64.6562
Q24.7031 64.6562 21.5312 62.3125
Q17.3906 59.2812 14.9844 53.4688
Q12.5938 47.6562 12.5 36.9219
Q15.6719 41.75 20.2656 44.0938
Q24.8594 46.4375 29.8906 46.4375
Q38.6719 46.4375 44.8438 39.9688
Q51.0312 33.5 51.0312 23.25
Q51.0312 16.5 48.125 10.7188
Q45.2188 4.9375 40.1406 1.85938
Q35.0625 -1.21875 28.6094 -1.21875
Q17.625 -1.21875 10.6875 6.85938
Q3.76562 14.9375 3.76562 33.5
Q3.76562 54.25 11.4219 63.6719
Q18.1094 71.875 29.4375 71.875
Q37.8906 71.875 43.2812 67.1406
Q48.6875 62.4062 49.75 54.0469
M13.875 23.1875
Q13.875 18.6562 15.7969 14.5
Q17.7188 10.3594 21.1875 8.17188
Q24.6562 6 28.4688 6
Q34.0312 6 38.0312 10.4844
Q42.0469 14.9844 42.0469 22.7031
Q42.0469 30.125 38.0781 34.3906
Q34.125 38.6719 28.125 38.6719
Q22.1719 38.6719 18.0156 34.3906
Q13.875 30.125 13.875 23.1875" id="ArialMT-36"/>
      </defs>
      <g style="fill:#262626;" transform="translate(13.50296875 226.433703125)scale(0.13 -0.13)">
       <use xlink:href="#ArialMT-36"/>
       <use x="55.615234375" xlink:href="#ArialMT-30"/>
      </g>
     </g>
    </g>
    <g id="ytick_5">
     <g id="line2d_37">
      <path clip-path="url(#p379d521dfb)" d="
M35.9503 156.578
L616.27 156.578" style="fill:none;stroke:#cccccc;stroke-linecap:round;stroke-width:1.3;"/>
     </g>
     <g id="line2d_38">
      <g>
       <use style="fill:#262626;stroke:#262626;stroke-width:1.3;" x="35.9503125" xlink:href="#me6a419ab46" y="156.578"/>
      </g>
     </g>
     <g id="line2d_39">
      <g>
       <use style="fill:#262626;stroke:#262626;stroke-width:1.3;" x="616.2703125" xlink:href="#me6a419ab46" y="156.578"/>
      </g>
     </g>
     <g id="text_14">
      <!-- 80 -->
      <defs>
       <path d="
M17.6719 38.8125
Q12.2031 40.8281 9.5625 44.5312
Q6.9375 48.25 6.9375 53.4219
Q6.9375 61.2344 12.5469 66.5469
Q18.1719 71.875 27.4844 71.875
Q36.8594 71.875 42.5781 66.4219
Q48.2969 60.9844 48.2969 53.1719
Q48.2969 48.1875 45.6719 44.5
Q43.0625 40.8281 37.75 38.8125
Q44.3438 36.6719 47.7812 31.875
Q51.2188 27.0938 51.2188 20.4531
Q51.2188 11.2812 44.7188 5.03125
Q38.2344 -1.21875 27.6406 -1.21875
Q17.0469 -1.21875 10.5469 5.04688
Q4.04688 11.3281 4.04688 20.7031
Q4.04688 27.6875 7.59375 32.3906
Q11.1406 37.1094 17.6719 38.8125
M15.9219 53.7188
Q15.9219 48.6406 19.1875 45.4062
Q22.4688 42.1875 27.6875 42.1875
Q32.7656 42.1875 36.0156 45.375
Q39.2656 48.5781 39.2656 53.2188
Q39.2656 58.0625 35.9062 61.3594
Q32.5625 64.6562 27.5938 64.6562
Q22.5625 64.6562 19.2344 61.4219
Q15.9219 58.2031 15.9219 53.7188
M13.0938 20.6562
Q13.0938 16.8906 14.875 13.375
Q16.6562 9.85938 20.1719 7.92188
Q23.6875 6 27.7344 6
Q34.0312 6 38.125 10.0469
Q42.2344 14.1094 42.2344 20.3594
Q42.2344 26.7031 38.0156 30.8594
Q33.7969 35.0156 27.4375 35.0156
Q21.2344 35.0156 17.1562 30.9062
Q13.0938 26.8125 13.0938 20.6562" id="ArialMT-38"/>
      </defs>
      <g style="fill:#262626;" transform="translate(13.53953125 159.938703125)scale(0.13 -0.13)">
       <use xlink:href="#ArialMT-38"/>
       <use x="55.615234375" xlink:href="#ArialMT-30"/>
      </g>
     </g>
    </g>
    <g id="ytick_6">
     <g id="line2d_40">
      <path clip-path="url(#p379d521dfb)" d="
M35.9503 90.083
L616.27 90.083" style="fill:none;stroke:#cccccc;stroke-linecap:round;stroke-width:1.3;"/>
     </g>
     <g id="line2d_41">
      <g>
       <use style="fill:#262626;stroke:#262626;stroke-width:1.3;" x="35.9503125" xlink:href="#me6a419ab46" y="90.083"/>
      </g>
     </g>
     <g id="line2d_42">
      <g>
       <use style="fill:#262626;stroke:#262626;stroke-width:1.3;" x="616.2703125" xlink:href="#me6a419ab46" y="90.083"/>
      </g>
     </g>
     <g id="text_15">
      <!-- 100 -->
      <g style="fill:#262626;" transform="translate(7.2 93.443703125)scale(0.13 -0.13)">
       <use xlink:href="#ArialMT-31"/>
       <use x="55.615234375" xlink:href="#ArialMT-30"/>
       <use x="111.23046875" xlink:href="#ArialMT-30"/>
      </g>
     </g>
    </g>
    <g id="ytick_7">
     <g id="line2d_43">
      <path clip-path="url(#p379d521dfb)" d="
M35.9503 23.588
L616.27 23.588" style="fill:none;stroke:#cccccc;stroke-linecap:round;stroke-width:1.3;"/>
     </g>
     <g id="line2d_44">
      <g>
       <use style="fill:#262626;stroke:#262626;stroke-width:1.3;" x="35.9503125" xlink:href="#me6a419ab46" y="23.588"/>
      </g>
     </g>
     <g id="line2d_45">
      <g>
       <use style="fill:#262626;stroke:#262626;stroke-width:1.3;" x="616.2703125" xlink:href="#me6a419ab46" y="23.588"/>
      </g>
     </g>
     <g id="text_16">
      <!-- 120 -->
      <g style="fill:#262626;" transform="translate(7.2 26.948703125)scale(0.13 -0.13)">
       <use xlink:href="#ArialMT-31"/>
       <use x="55.615234375" xlink:href="#ArialMT-32"/>
       <use x="111.23046875" xlink:href="#ArialMT-30"/>
      </g>
     </g>
    </g>
   </g>
   <g id="patch_3">
    <path clip-path="url(#p379d521dfb)" d="
M36.1773 422.558
L52.8992 422.558
L52.8992 199.8
L36.1773 199.8
z
" style="fill:#ff7f50;opacity:0.4;stroke:#000000;stroke-linejoin:miter;stroke-width:0.39;"/>
   </g>
   <g id="patch_4">
    <path clip-path="url(#p379d521dfb)" d="
M52.8992 422.558
L69.6212 422.558
L69.6212 56.8355
L52.8992 56.8355
z
" style="fill:#ff7f50;opacity:0.4;stroke:#000000;stroke-linejoin:miter;stroke-width:0.39;"/>
   </g>
   <g id="patch_5">
    <path clip-path="url(#p379d521dfb)" d="
M69.6212 422.558
L86.3431 422.558
L86.3431 156.578
L69.6212 156.578
z
" style="fill:#ff7f50;opacity:0.4;stroke:#000000;stroke-linejoin:miter;stroke-width:0.39;"/>
   </g>
   <g id="patch_6">
    <path clip-path="url(#p379d521dfb)" d="
M86.3431 422.558
L103.065 422.558
L103.065 236.372
L86.3431 236.372
z
" style="fill:#ff7f50;opacity:0.4;stroke:#000000;stroke-linejoin:miter;stroke-width:0.39;"/>
   </g>
   <g id="patch_7">
    <path clip-path="url(#p379d521dfb)" d="
M103.065 422.558
L119.787 422.558
L119.787 236.372
L103.065 236.372
z
" style="fill:#ff7f50;opacity:0.4;stroke:#000000;stroke-linejoin:miter;stroke-width:0.39;"/>
   </g>
   <g id="patch_8">
    <path clip-path="url(#p379d521dfb)" d="
M119.787 422.558
L136.509 422.558
L136.509 262.97
L119.787 262.97
z
" style="fill:#ff7f50;opacity:0.4;stroke:#000000;stroke-linejoin:miter;stroke-width:0.39;"/>
   </g>
   <g id="patch_9">
    <path clip-path="url(#p379d521dfb)" d="
M136.509 422.558
L153.231 422.558
L153.231 352.738
L136.509 352.738
z
" style="fill:#ff7f50;opacity:0.4;stroke:#000000;stroke-linejoin:miter;stroke-width:0.39;"/>
   </g>
   <g id="patch_10">
    <path clip-path="url(#p379d521dfb)" d="
M153.231 422.558
L169.953 422.558
L169.953 342.764
L153.231 342.764
z
" style="fill:#ff7f50;opacity:0.4;stroke:#000000;stroke-linejoin:miter;stroke-width:0.39;"/>
   </g>
   <g id="patch_11">
    <path clip-path="url(#p379d521dfb)" d="
M169.953 422.558
L186.675 422.558
L186.675 372.687
L169.953 372.687
z
" style="fill:#ff7f50;opacity:0.4;stroke:#000000;stroke-linejoin:miter;stroke-width:0.39;"/>
   </g>
   <g id="patch_12">
    <path clip-path="url(#p379d521dfb)" d="
M186.675 422.558
L203.397 422.558
L203.397 389.31
L186.675 389.31
z
" style="fill:#ff7f50;opacity:0.4;stroke:#000000;stroke-linejoin:miter;stroke-width:0.39;"/>
   </g>
   <g id="patch_13">
    <path clip-path="url(#p379d521dfb)" d="
M203.397 422.558
L220.119 422.558
L220.119 389.31
L203.397 389.31
z
" style="fill:#ff7f50;opacity:0.4;stroke:#000000;stroke-linejoin:miter;stroke-width:0.39;"/>
   </g>
   <g id="patch_14">
    <path clip-path="url(#p379d521dfb)" d="
M220.119 422.558
L236.84 422.558
L236.84 399.285
L220.119 399.285
z
" style="fill:#ff7f50;opacity:0.4;stroke:#000000;stroke-linejoin:miter;stroke-width:0.39;"/>
   </g>
   <g id="patch_15">
    <path clip-path="url(#p379d521dfb)" d="
M236.84 422.558
L253.562 422.558
L253.562 402.609
L236.84 402.609
z
" style="fill:#ff7f50;opacity:0.4;stroke:#000000;stroke-linejoin:miter;stroke-width:0.39;"/>
   </g>
   <g id="patch_16">
    <path clip-path="url(#p379d521dfb)" d="
M253.562 422.558
L270.284 422.558
L270.284 409.259
L253.562 409.259
z
" style="fill:#ff7f50;opacity:0.4;stroke:#000000;stroke-linejoin:miter;stroke-width:0.39;"/>
   </g>
   <g id="patch_17">
    <path clip-path="url(#p379d521dfb)" d="
M270.284 422.558
L287.006 422.558
L287.006 399.285
L270.284 399.285
z
" style="fill:#ff7f50;opacity:0.4;stroke:#000000;stroke-linejoin:miter;stroke-width:0.39;"/>
   </g>
   <g id="patch_18">
    <path clip-path="url(#p379d521dfb)" d="
M287.006 422.558
L303.728 422.558
L303.728 409.259
L287.006 409.259
z
" style="fill:#ff7f50;opacity:0.4;stroke:#000000;stroke-linejoin:miter;stroke-width:0.39;"/>
   </g>
   <g id="patch_19">
    <path clip-path="url(#p379d521dfb)" d="
M303.728 422.558
L320.45 422.558
L320.45 412.584
L303.728 412.584
z
" style="fill:#ff7f50;opacity:0.4;stroke:#000000;stroke-linejoin:miter;stroke-width:0.39;"/>
   </g>
   <g id="patch_20">
    <path clip-path="url(#p379d521dfb)" d="
M320.45 422.558
L337.172 422.558
L337.172 412.584
L320.45 412.584
z
" style="fill:#ff7f50;opacity:0.4;stroke:#000000;stroke-linejoin:miter;stroke-width:0.39;"/>
   </g>
   <g id="patch_21">
    <path clip-path="url(#p379d521dfb)" d="
M337.172 422.558
L353.894 422.558
L353.894 419.233
L337.172 419.233
z
" style="fill:#ff7f50;opacity:0.4;stroke:#000000;stroke-linejoin:miter;stroke-width:0.39;"/>
   </g>
   <g id="patch_22">
    <path clip-path="url(#p379d521dfb)" d="
M353.894 422.558
L370.616 422.558
L370.616 419.233
L353.894 419.233
z
" style="fill:#ff7f50;opacity:0.4;stroke:#000000;stroke-linejoin:miter;stroke-width:0.39;"/>
   </g>
   <g id="patch_23">
    <path clip-path="url(#p379d521dfb)" d="
M370.616 422.558
L387.338 422.558
L387.338 412.584
L370.616 412.584
z
" style="fill:#ff7f50;opacity:0.4;stroke:#000000;stroke-linejoin:miter;stroke-width:0.39;"/>
   </g>
   <g id="patch_24">
    <path clip-path="url(#p379d521dfb)" d="
M387.338 422.558
L404.06 422.558
L404.06 419.233
L387.338 419.233
z
" style="fill:#ff7f50;opacity:0.4;stroke:#000000;stroke-linejoin:miter;stroke-width:0.39;"/>
   </g>
   <g id="patch_25">
    <path clip-path="url(#p379d521dfb)" d="
M404.06 422.558
L420.782 422.558
L420.782 415.909
L404.06 415.909
z
" style="fill:#ff7f50;opacity:0.4;stroke:#000000;stroke-linejoin:miter;stroke-width:0.39;"/>
   </g>
   <g id="patch_26">
    <path clip-path="url(#p379d521dfb)" d="
M420.782 422.558
L437.504 422.558
L437.504 419.233
L420.782 419.233
z
" style="fill:#ff7f50;opacity:0.4;stroke:#000000;stroke-linejoin:miter;stroke-width:0.39;"/>
   </g>
   <g id="patch_27">
    <path clip-path="url(#p379d521dfb)" d="
M437.504 422.558
L454.226 422.558
L454.226 415.909
L437.504 415.909
z
" style="fill:#ff7f50;opacity:0.4;stroke:#000000;stroke-linejoin:miter;stroke-width:0.39;"/>
   </g>
   <g id="patch_28">
    <path clip-path="url(#p379d521dfb)" d="
M454.226 422.558
L470.947 422.558
L470.947 419.233
L454.226 419.233
z
" style="fill:#ff7f50;opacity:0.4;stroke:#000000;stroke-linejoin:miter;stroke-width:0.39;"/>
   </g>
   <g id="patch_29">
    <path clip-path="url(#p379d521dfb)" d="
M470.947 422.558
L487.669 422.558
L487.669 415.909
L470.947 415.909
z
" style="fill:#ff7f50;opacity:0.4;stroke:#000000;stroke-linejoin:miter;stroke-width:0.39;"/>
   </g>
   <g id="patch_30">
    <path clip-path="url(#p379d521dfb)" d="
M487.669 422.558
L504.391 422.558
L504.391 422.558
L487.669 422.558
z
" style="fill:#ff7f50;opacity:0.4;stroke:#000000;stroke-linejoin:miter;stroke-width:0.39;"/>
   </g>
   <g id="patch_31">
    <path clip-path="url(#p379d521dfb)" d="
M504.391 422.558
L521.113 422.558
L521.113 419.233
L504.391 419.233
z
" style="fill:#ff7f50;opacity:0.4;stroke:#000000;stroke-linejoin:miter;stroke-width:0.39;"/>
   </g>
   <g id="patch_32">
    <path clip-path="url(#p379d521dfb)" d="
M521.113 422.558
L537.835 422.558
L537.835 422.558
L521.113 422.558
z
" style="fill:#ff7f50;opacity:0.4;stroke:#000000;stroke-linejoin:miter;stroke-width:0.39;"/>
   </g>
   <g id="patch_33">
    <path clip-path="url(#p379d521dfb)" d="
M537.835 422.558
L554.557 422.558
L554.557 422.558
L537.835 422.558
z
" style="fill:#ff7f50;opacity:0.4;stroke:#000000;stroke-linejoin:miter;stroke-width:0.39;"/>
   </g>
   <g id="patch_34">
    <path clip-path="url(#p379d521dfb)" d="
M554.557 422.558
L571.279 422.558
L571.279 422.558
L554.557 422.558
z
" style="fill:#ff7f50;opacity:0.4;stroke:#000000;stroke-linejoin:miter;stroke-width:0.39;"/>
   </g>
   <g id="patch_35">
    <path clip-path="url(#p379d521dfb)" d="
M571.279 422.558
L588.001 422.558
L588.001 419.233
L571.279 419.233
z
" style="fill:#ff7f50;opacity:0.4;stroke:#000000;stroke-linejoin:miter;stroke-width:0.39;"/>
   </g>
   <g id="patch_36">
    <path d="
M35.9503 23.588
L616.27 23.588" style="fill:none;stroke:#cccccc;stroke-linecap:square;stroke-linejoin:miter;"/>
   </g>
   <g id="patch_37">
    <path d="
M616.27 422.558
L616.27 23.588" style="fill:none;stroke:#cccccc;stroke-linecap:square;stroke-linejoin:miter;"/>
   </g>
   <g id="patch_38">
    <path d="
M35.9503 422.558
L616.27 422.558" style="fill:none;stroke:#cccccc;stroke-linecap:square;stroke-linejoin:miter;"/>
   </g>
   <g id="patch_39">
    <path d="
M35.9503 422.558
L35.9503 23.588" style="fill:none;stroke:#cccccc;stroke-linecap:square;stroke-linejoin:miter;"/>
   </g>
   <g id="text_17">
    <!-- *median length = 331322.0 -->
    <defs>
     <path d="
M40.4375 6.39062
Q35.5469 2.25 31.0312 0.53125
Q26.5156 -1.17188 21.3438 -1.17188
Q12.7969 -1.17188 8.20312 3
Q3.60938 7.17188 3.60938 13.6719
Q3.60938 17.4844 5.34375 20.625
Q7.07812 23.7812 9.89062 25.6875
Q12.7031 27.5938 16.2188 28.5625
Q18.7969 29.25 24.0312 29.8906
Q34.6719 31.1562 39.7031 32.9062
Q39.75 34.7188 39.75 35.2031
Q39.75 40.5781 37.25 42.7812
Q33.8906 45.75 27.25 45.75
Q21.0469 45.75 18.0938 43.5781
Q15.1406 41.4062 13.7188 35.8906
L5.125 37.0625
Q6.29688 42.5781 8.98438 45.9688
Q11.6719 49.3594 16.75 51.1875
Q21.8281 53.0312 28.5156 53.0312
Q35.1562 53.0312 39.2969 51.4688
Q43.4531 49.9062 45.4062 47.5312
Q47.3594 45.1719 48.1406 41.5469
Q48.5781 39.3125 48.5781 33.4531
L48.5781 21.7344
Q48.5781 9.46875 49.1406 6.21875
Q49.7031 2.98438 51.375 0
L42.1875 0
Q40.8281 2.73438 40.4375 6.39062
M39.7031 26.0312
Q34.9062 24.0781 25.3438 22.7031
Q19.9219 21.9219 17.6719 20.9375
Q15.4375 19.9688 14.2031 18.0938
Q12.9844 16.2188 12.9844 13.9219
Q12.9844 10.4062 15.6406 8.0625
Q18.3125 5.71875 23.4375 5.71875
Q28.5156 5.71875 32.4688 7.9375
Q36.4219 10.1562 38.2812 14.0156
Q39.7031 17 39.7031 22.7969
z
" id="ArialMT-61"/>
     <path d="
M40.2344 0
L40.2344 6.54688
Q35.2969 -1.17188 25.7344 -1.17188
Q19.5312 -1.17188 14.3281 2.25
Q9.125 5.67188 6.26562 11.7969
Q3.42188 17.9219 3.42188 25.875
Q3.42188 33.6406 6 39.9688
Q8.59375 46.2969 13.7656 49.6562
Q18.9531 53.0312 25.3438 53.0312
Q30.0312 53.0312 33.6875 51.0469
Q37.3594 49.0781 39.6562 45.9062
L39.6562 71.5781
L48.3906 71.5781
L48.3906 0
z

M12.4531 25.875
Q12.4531 15.9219 16.6406 10.9844
Q20.8438 6.0625 26.5625 6.0625
Q32.3281 6.0625 36.3438 10.7656
Q40.375 15.4844 40.375 25.1406
Q40.375 35.7969 36.2656 40.7656
Q32.1719 45.75 26.1719 45.75
Q20.3125 45.75 16.375 40.9688
Q12.4531 36.1875 12.4531 25.875" id="ArialMT-64"/>
     <path d="
M6.64062 61.4688
L6.64062 71.5781
L15.4375 71.5781
L15.4375 61.4688
z

M6.64062 0
L6.64062 51.8594
L15.4375 51.8594
L15.4375 0
z
" id="ArialMT-69"/>
     <path d="
M52.8281 42.0938
L5.5625 42.0938
L5.5625 50.2969
L52.8281 50.2969
z

M52.8281 20.3594
L5.5625 20.3594
L5.5625 28.5625
L52.8281 28.5625
z
" id="ArialMT-3d"/>
     <path d="
M3.125 58.4531
L5.375 65.375
Q13.1406 62.6406 16.6562 60.6406
Q15.7188 69.4844 15.6719 72.7969
L22.75 72.7969
Q22.6094 67.9688 21.625 60.6875
Q26.6562 63.2344 33.1562 65.375
L35.4062 58.4531
Q29.2031 56.3906 23.25 55.7188
Q26.2188 53.125 31.6406 46.4844
L25.7812 42.3281
Q22.9531 46.1875 19.0938 52.8281
Q15.4844 45.9531 12.75 42.3281
L6.98438 46.4844
Q12.6406 53.4688 15.0938 55.7188
Q8.79688 56.9375 3.125 58.4531" id="ArialMT-2a"/>
     <path d="
M6.59375 0
L6.59375 51.8594
L14.4531 51.8594
L14.4531 44.5781
Q16.8906 48.3906 20.9375 50.7031
Q25 53.0312 30.1719 53.0312
Q35.9375 53.0312 39.625 50.6406
Q43.3125 48.25 44.8281 43.9531
Q50.9844 53.0312 60.8438 53.0312
Q68.5625 53.0312 72.7031 48.75
Q76.8594 44.4844 76.8594 35.5938
L76.8594 0
L68.1094 0
L68.1094 32.6719
Q68.1094 37.9375 67.25 40.25
Q66.4062 42.5781 64.1562 43.9844
Q61.9219 45.4062 58.8906 45.4062
Q53.4219 45.4062 49.7969 41.7656
Q46.1875 38.1406 46.1875 30.125
L46.1875 0
L37.4062 0
L37.4062 33.6875
Q37.4062 39.5469 35.25 42.4688
Q33.1094 45.4062 28.2188 45.4062
Q24.5156 45.4062 21.3594 43.4531
Q18.2188 41.5 16.7969 37.7344
Q15.375 33.9844 15.375 26.9062
L15.375 0
z
" id="ArialMT-6d"/>
     <path d="
M9.07812 0
L9.07812 10.0156
L19.0938 10.0156
L19.0938 0
z
" id="ArialMT-2e"/>
     <path id="ArialMT-20"/>
    </defs>
    <g style="fill:#262626;" transform="translate(90.8853933686 289.568)scale(0.14 -0.14)">
     <use xlink:href="#ArialMT-2a"/>
     <use x="38.916015625" xlink:href="#ArialMT-6d"/>
     <use x="122.216796875" xlink:href="#ArialMT-65"/>
     <use x="177.83203125" xlink:href="#ArialMT-64"/>
     <use x="233.447265625" xlink:href="#ArialMT-69"/>
     <use x="255.6640625" xlink:href="#ArialMT-61"/>
     <use x="311.279296875" xlink:href="#ArialMT-6e"/>
     <use x="366.89453125" xlink:href="#ArialMT-20"/>
     <use x="394.677734375" xlink:href="#ArialMT-6c"/>
     <use x="416.89453125" xlink:href="#ArialMT-65"/>
     <use x="472.509765625" xlink:href="#ArialMT-6e"/>
     <use x="528.125" xlink:href="#ArialMT-67"/>
     <use x="583.740234375" xlink:href="#ArialMT-74"/>
     <use x="611.5234375" xlink:href="#ArialMT-68"/>
     <use x="667.138671875" xlink:href="#ArialMT-20"/>
     <use x="694.921875" xlink:href="#ArialMT-3d"/>
     <use x="753.3203125" xlink:href="#ArialMT-20"/>
     <use x="781.103515625" xlink:href="#ArialMT-33"/>
     <use x="836.71875" xlink:href="#ArialMT-33"/>
     <use x="892.333984375" xlink:href="#ArialMT-31"/>
     <use x="947.94921875" xlink:href="#ArialMT-33"/>
     <use x="1003.56445312" xlink:href="#ArialMT-32"/>
     <use x="1059.1796875" xlink:href="#ArialMT-32"/>
     <use x="1114.79492188" xlink:href="#ArialMT-2e"/>
     <use x="1142.578125" xlink:href="#ArialMT-30"/>
    </g>
   </g>
   <g id="text_18">
    <!-- *mean length = 481584.093236 -->
    <defs>
     <path d="
M5.46875 16.5469
L13.9219 17.3281
Q14.9844 11.375 18.0156 8.6875
Q21.0469 6 25.7812 6
Q29.8281 6 32.875 7.85938
Q35.9375 9.71875 37.8906 12.8125
Q39.8438 15.9219 41.1562 21.1875
Q42.4844 26.4688 42.4844 31.9375
Q42.4844 32.5156 42.4375 33.6875
Q39.7969 29.5 35.2344 26.875
Q30.6719 24.2656 25.3438 24.2656
Q16.4531 24.2656 10.2969 30.7031
Q4.15625 37.1562 4.15625 47.7031
Q4.15625 58.5938 10.5781 65.2344
Q17 71.875 26.6562 71.875
Q33.6406 71.875 39.4219 68.1094
Q45.2188 64.3594 48.2188 57.3906
Q51.2188 50.4375 51.2188 37.25
Q51.2188 23.5312 48.2344 15.4062
Q45.2656 7.28125 39.375 3.03125
Q33.5 -1.21875 25.5938 -1.21875
Q17.1875 -1.21875 11.8594 3.4375
Q6.54688 8.10938 5.46875 16.5469
M41.4531 48.1406
Q41.4531 55.7188 37.4219 60.1562
Q33.4062 64.5938 27.7344 64.5938
Q21.875 64.5938 17.5312 59.8125
Q13.1875 55.0312 13.1875 47.4062
Q13.1875 40.5781 17.3125 36.2969
Q21.4375 32.0312 27.4844 32.0312
Q33.5938 32.0312 37.5156 36.2969
Q41.4531 40.5781 41.4531 48.1406" id="ArialMT-39"/>
    </defs>
    <g style="fill:#262626;" transform="translate(115.799707068 356.063)scale(0.14 -0.14)">
     <use xlink:href="#ArialMT-2a"/>
     <use x="38.916015625" xlink:href="#ArialMT-6d"/>
     <use x="122.216796875" xlink:href="#ArialMT-65"/>
     <use x="177.83203125" xlink:href="#ArialMT-61"/>
     <use x="233.447265625" xlink:href="#ArialMT-6e"/>
     <use x="289.0625" xlink:href="#ArialMT-20"/>
     <use x="316.845703125" xlink:href="#ArialMT-6c"/>
     <use x="339.0625" xlink:href="#ArialMT-65"/>
     <use x="394.677734375" xlink:href="#ArialMT-6e"/>
     <use x="450.29296875" xlink:href="#ArialMT-67"/>
     <use x="505.908203125" xlink:href="#ArialMT-74"/>
     <use x="533.69140625" xlink:href="#ArialMT-68"/>
     <use x="589.306640625" xlink:href="#ArialMT-20"/>
     <use x="617.08984375" xlink:href="#ArialMT-3d"/>
     <use x="675.48828125" xlink:href="#ArialMT-20"/>
     <use x="703.271484375" xlink:href="#ArialMT-34"/>
     <use x="758.88671875" xlink:href="#ArialMT-38"/>
     <use x="814.501953125" xlink:href="#ArialMT-31"/>
     <use x="870.1171875" xlink:href="#ArialMT-35"/>
     <use x="925.732421875" xlink:href="#ArialMT-38"/>
     <use x="981.34765625" xlink:href="#ArialMT-34"/>
     <use x="1036.96289062" xlink:href="#ArialMT-2e"/>
     <use x="1064.74609375" xlink:href="#ArialMT-30"/>
     <use x="1120.36132812" xlink:href="#ArialMT-39"/>
     <use x="1175.9765625" xlink:href="#ArialMT-33"/>
     <use x="1231.59179688" xlink:href="#ArialMT-32"/>
     <use x="1287.20703125" xlink:href="#ArialMT-33"/>
     <use x="1342.82226562" xlink:href="#ArialMT-36"/>
    </g>
   </g>
   <g id="text_19">
    <!-- Number of contigs = 547 -->
    <defs>
     <path d="
M40.4375 19
L49.0781 17.875
Q47.6562 8.9375 41.8125 3.875
Q35.9844 -1.17188 27.4844 -1.17188
Q16.8438 -1.17188 10.375 5.78125
Q3.90625 12.75 3.90625 25.7344
Q3.90625 34.125 6.6875 40.4219
Q9.46875 46.7344 15.1562 49.875
Q20.8438 53.0312 27.5469 53.0312
Q35.9844 53.0312 41.3594 48.75
Q46.7344 44.4844 48.25 36.625
L39.7031 35.2969
Q38.4844 40.5312 35.375 43.1562
Q32.2812 45.7969 27.875 45.7969
Q21.2344 45.7969 17.0781 41.0312
Q12.9375 36.2812 12.9375 25.9844
Q12.9375 15.5312 16.9375 10.7969
Q20.9531 6.0625 27.3906 6.0625
Q32.5625 6.0625 36.0312 9.23438
Q39.5 12.4062 40.4375 19" id="ArialMT-63"/>
     <path d="
M14.7031 0
L6.54688 0
L6.54688 71.5781
L15.3281 71.5781
L15.3281 46.0469
Q20.9062 53.0312 29.5469 53.0312
Q34.3281 53.0312 38.5938 51.0938
Q42.875 49.1719 45.625 45.6719
Q48.3906 42.1875 49.9531 37.25
Q51.5156 32.3281 51.5156 26.7031
Q51.5156 13.375 44.9219 6.09375
Q38.3281 -1.17188 29.1094 -1.17188
Q19.9219 -1.17188 14.7031 6.5
z

M14.5938 26.3125
Q14.5938 17 17.1406 12.8438
Q21.2969 6.0625 28.375 6.0625
Q34.125 6.0625 38.3281 11.0625
Q42.5312 16.0625 42.5312 25.9844
Q42.5312 36.1406 38.5 40.9688
Q34.4688 45.7969 28.7656 45.7969
Q23 45.7969 18.7969 40.7969
Q14.5938 35.7969 14.5938 26.3125" id="ArialMT-62"/>
     <path d="
M8.6875 0
L8.6875 45.0156
L0.921875 45.0156
L0.921875 51.8594
L8.6875 51.8594
L8.6875 57.375
Q8.6875 62.5938 9.625 65.1406
Q10.8906 68.5625 14.0781 70.6719
Q17.2812 72.7969 23.0469 72.7969
Q26.7656 72.7969 31.25 71.9219
L29.9375 64.2656
Q27.2031 64.75 24.75 64.75
Q20.75 64.75 19.0938 63.0312
Q17.4375 61.3281 17.4375 56.6406
L17.4375 51.8594
L27.5469 51.8594
L27.5469 45.0156
L17.4375 45.0156
L17.4375 0
z
" id="ArialMT-66"/>
     <path d="
M40.5781 0
L40.5781 7.625
Q34.5156 -1.17188 24.125 -1.17188
Q19.5312 -1.17188 15.5469 0.578125
Q11.5781 2.34375 9.64062 5
Q7.71875 7.67188 6.9375 11.5312
Q6.39062 14.1094 6.39062 19.7344
L6.39062 51.8594
L15.1875 51.8594
L15.1875 23.0938
Q15.1875 16.2188 15.7188 13.8125
Q16.5469 10.3594 19.2344 8.375
Q21.9219 6.39062 25.875 6.39062
Q29.8281 6.39062 33.2969 8.42188
Q36.7656 10.4531 38.2031 13.9375
Q39.6562 17.4375 39.6562 24.0781
L39.6562 51.8594
L48.4375 51.8594
L48.4375 0
z
" id="ArialMT-75"/>
     <path d="
M6.5 0
L6.5 51.8594
L14.4062 51.8594
L14.4062 44
Q17.4375 49.5156 20 51.2656
Q22.5625 53.0312 25.6406 53.0312
Q30.0781 53.0312 34.6719 50.2031
L31.6406 42.0469
Q28.4219 43.9531 25.2031 43.9531
Q22.3125 43.9531 20.0156 42.2188
Q17.7188 40.4844 16.75 37.4062
Q15.2812 32.7188 15.2812 27.1562
L15.2812 0
z
" id="ArialMT-72"/>
     <path d="
M3.07812 15.4844
L11.7656 16.8438
Q12.5 11.625 15.8438 8.84375
Q19.1875 6.0625 25.2031 6.0625
Q31.25 6.0625 34.1719 8.51562
Q37.1094 10.9844 37.1094 14.3125
Q37.1094 17.2812 34.5156 19
Q32.7188 20.1719 25.5312 21.9688
Q15.875 24.4219 12.1406 26.2031
Q8.40625 27.9844 6.46875 31.125
Q4.54688 34.2812 4.54688 38.0938
Q4.54688 41.5469 6.125 44.5
Q7.71875 47.4688 10.4531 49.4219
Q12.5 50.9219 16.0312 51.9688
Q19.5781 53.0312 23.6406 53.0312
Q29.7344 53.0312 34.3438 51.2656
Q38.9688 49.5156 41.1562 46.5
Q43.3594 43.5 44.1875 38.4844
L35.5938 37.3125
Q35.0156 41.3125 32.2031 43.5469
Q29.3906 45.7969 24.2656 45.7969
Q18.2188 45.7969 15.625 43.7969
Q13.0312 41.7969 13.0312 39.1094
Q13.0312 37.4062 14.1094 36.0312
Q15.1875 34.625 17.4844 33.6875
Q18.7969 33.2031 25.25 31.4531
Q34.5781 28.9531 38.25 27.3594
Q41.9375 25.7812 44.0312 22.75
Q46.1406 19.7344 46.1406 15.2344
Q46.1406 10.8438 43.5781 6.95312
Q41.0156 3.07812 36.1719 0.953125
Q31.3438 -1.17188 25.25 -1.17188
Q15.1406 -1.17188 9.84375 3.03125
Q4.54688 7.23438 3.07812 15.4844" id="ArialMT-73"/>
     <path d="
M3.32812 25.9219
Q3.32812 40.3281 11.3281 47.2656
Q18.0156 53.0312 27.6406 53.0312
Q38.3281 53.0312 45.1094 46.0156
Q51.9062 39.0156 51.9062 26.6562
Q51.9062 16.6562 48.9062 10.9062
Q45.9062 5.17188 40.1562 2
Q34.4219 -1.17188 27.6406 -1.17188
Q16.75 -1.17188 10.0312 5.8125
Q3.32812 12.7969 3.32812 25.9219
M12.3594 25.9219
Q12.3594 15.9688 16.7031 11.0156
Q21.0469 6.0625 27.6406 6.0625
Q34.1875 6.0625 38.5312 11.0312
Q42.875 16.0156 42.875 26.2188
Q42.875 35.8438 38.5 40.7969
Q34.125 45.75 27.6406 45.75
Q21.0469 45.75 16.7031 40.8125
Q12.3594 35.8906 12.3594 25.9219" id="ArialMT-6f"/>
     <path d="
M7.625 0
L7.625 71.5781
L17.3281 71.5781
L54.9375 15.375
L54.9375 71.5781
L64.0156 71.5781
L64.0156 0
L54.2969 0
L16.7031 56.25
L16.7031 0
z
" id="ArialMT-4e"/>
     <path d="
M4.73438 62.2031
L4.73438 70.6562
L51.0781 70.6562
L51.0781 63.8125
Q44.2344 56.5469 37.5156 44.4844
Q30.8125 32.4219 27.1562 19.6719
Q24.5156 10.6875 23.7812 0
L14.75 0
Q14.8906 8.45312 18.0625 20.4062
Q21.2344 32.375 27.1719 43.4844
Q33.1094 54.5938 39.7969 62.2031
z
" id="ArialMT-37"/>
    </defs>
    <g style="fill:#262626;" transform="translate(115.799707068 156.578)scale(0.14 -0.14)">
     <use xlink:href="#ArialMT-4e"/>
     <use x="72.216796875" xlink:href="#ArialMT-75"/>
     <use x="127.83203125" xlink:href="#ArialMT-6d"/>
     <use x="211.1328125" xlink:href="#ArialMT-62"/>
     <use x="266.748046875" xlink:href="#ArialMT-65"/>
     <use x="322.36328125" xlink:href="#ArialMT-72"/>
     <use x="355.6640625" xlink:href="#ArialMT-20"/>
     <use x="383.447265625" xlink:href="#ArialMT-6f"/>
     <use x="439.0625" xlink:href="#ArialMT-66"/>
     <use x="466.845703125" xlink:href="#ArialMT-20"/>
     <use x="494.62890625" xlink:href="#ArialMT-63"/>
     <use x="544.62890625" xlink:href="#ArialMT-6f"/>
     <use x="600.244140625" xlink:href="#ArialMT-6e"/>
     <use x="655.859375" xlink:href="#ArialMT-74"/>
     <use x="683.642578125" xlink:href="#ArialMT-69"/>
     <use x="705.859375" xlink:href="#ArialMT-67"/>
     <use x="761.474609375" xlink:href="#ArialMT-73"/>
     <use x="811.474609375" xlink:href="#ArialMT-20"/>
     <use x="839.2578125" xlink:href="#ArialMT-3d"/>
     <use x="897.65625" xlink:href="#ArialMT-20"/>
     <use x="925.439453125" xlink:href="#ArialMT-35"/>
     <use x="981.0546875" xlink:href="#ArialMT-34"/>
     <use x="1036.66992188" xlink:href="#ArialMT-37"/>
    </g>
   </g>
   <g id="text_20">
    <!-- Contigs with a SNP-pair filtered by binned LD ($q \leq 0.01$) -->
    <defs>
     <path d="
M9.28125 0
L9.28125 3.51562
Q21.7812 3.51562 21.7812 6.6875
L21.7812 59.1875
Q16.6094 56.6875 8.6875 56.6875
L8.6875 60.2031
Q20.9531 60.2031 27.2031 66.6094
L28.6094 66.6094
Q28.9531 66.6094 29.2656 66.3281
Q29.5938 66.0625 29.5938 65.7188
L29.5938 6.6875
Q29.5938 3.51562 42.0938 3.51562
L42.0938 0
z
" id="Cmr10-31"/>
     <path d="
M3.17188 21.4844
L3.17188 30.3281
L30.1719 30.3281
L30.1719 21.4844
z
" id="ArialMT-2d"/>
     <path d="
M6.20312 -19.9688
L5.21875 -11.7188
Q8.10938 -12.5 10.25 -12.5
Q13.1875 -12.5 14.9375 -11.5156
Q16.7031 -10.5469 17.8281 -8.79688
Q18.6562 -7.46875 20.5156 -2.25
Q20.75 -1.51562 21.2969 -0.09375
L1.60938 51.8594
L11.0781 51.8594
L21.875 21.8281
Q23.9688 16.1094 25.6406 9.8125
Q27.1562 15.875 29.25 21.625
L40.3281 51.8594
L49.125 51.8594
L29.3906 -0.875
Q26.2188 -9.42188 24.4688 -12.6406
Q22.125 -17 19.0938 -19.0156
Q16.0625 -21.0469 11.8594 -21.0469
Q9.32812 -21.0469 6.20312 -19.9688" id="ArialMT-79"/>
     <path d="
M4.5 23
L13.4219 23.7812
Q14.0625 18.4062 16.375 14.9688
Q18.7031 11.5312 23.5781 9.40625
Q28.4688 7.28125 34.5781 7.28125
Q39.9844 7.28125 44.1406 8.89062
Q48.2969 10.5 50.3125 13.2969
Q52.3438 16.1094 52.3438 19.4375
Q52.3438 22.7969 50.3906 25.3125
Q48.4375 27.8281 43.9531 29.5469
Q41.0625 30.6719 31.2031 33.0312
Q21.3438 35.4062 17.3906 37.5
Q12.25 40.1875 9.73438 44.1562
Q7.23438 48.1406 7.23438 53.0781
Q7.23438 58.5 10.2969 63.2031
Q13.375 67.9219 19.2812 70.3594
Q25.2031 72.7969 32.4219 72.7969
Q40.375 72.7969 46.4531 70.2344
Q52.5469 67.6719 55.8125 62.6875
Q59.0781 57.7188 59.3281 51.4219
L50.25 50.7344
Q49.5156 57.5156 45.2812 60.9844
Q41.0625 64.4531 32.8125 64.4531
Q24.2188 64.4531 20.2812 61.2969
Q16.3594 58.1562 16.3594 53.7188
Q16.3594 49.8594 19.1406 47.3594
Q21.875 44.875 33.4219 42.2656
Q44.9688 39.6562 49.2656 37.7031
Q55.5156 34.8125 58.4844 30.3906
Q61.4688 25.9844 61.4688 20.2188
Q61.4688 14.5 58.2031 9.4375
Q54.9375 4.39062 48.7969 1.57812
Q42.6719 -1.21875 35.0156 -1.21875
Q25.2969 -1.21875 18.7188 1.60938
Q12.1562 4.4375 8.42188 10.125
Q4.6875 15.8281 4.5 23" id="ArialMT-53"/>
     <path d="
M58.7969 25.0938
L68.2656 22.7031
Q65.2812 11.0312 57.5469 4.90625
Q49.8125 -1.21875 38.625 -1.21875
Q27.0469 -1.21875 19.7969 3.48438
Q12.5469 8.20312 8.76562 17.1406
Q4.98438 26.0781 4.98438 36.3281
Q4.98438 47.5156 9.25 55.8281
Q13.5312 64.1562 21.4062 68.4688
Q29.2969 72.7969 38.7656 72.7969
Q49.5156 72.7969 56.8281 67.3281
Q64.1562 61.8594 67.0469 51.9531
L57.7188 49.75
Q55.2188 57.5625 50.4844 61.125
Q45.75 64.7031 38.5781 64.7031
Q30.3281 64.7031 24.7812 60.7344
Q19.2344 56.7812 16.9844 50.1094
Q14.75 43.4531 14.75 36.375
Q14.75 27.25 17.4062 20.4375
Q20.0625 13.625 25.6719 10.25
Q31.2969 6.89062 37.8438 6.89062
Q45.7969 6.89062 51.3125 11.4688
Q56.8438 16.0625 58.7969 25.0938" id="ArialMT-43"/>
     <path d="
M16.1562 0
L0.296875 51.8594
L9.375 51.8594
L17.625 21.9219
L20.7031 10.7969
Q20.9062 11.625 23.3906 21.4844
L31.6406 51.8594
L40.6719 51.8594
L48.4375 21.7812
L51.0312 11.8594
L54 21.875
L62.8906 51.8594
L71.4375 51.8594
L55.2188 0
L46.0938 0
L37.8438 31.0625
L35.8438 39.8906
L25.3438 0
z
" id="ArialMT-77"/>
     <path d="
M6.59375 -19.875
L6.59375 51.8594
L14.5938 51.8594
L14.5938 45.125
Q17.4375 49.0781 21 51.0469
Q24.5625 53.0312 29.6406 53.0312
Q36.2812 53.0312 41.3594 49.6094
Q46.4375 46.1875 49.0156 39.9531
Q51.6094 33.7344 51.6094 26.3125
Q51.6094 18.3594 48.75 11.9844
Q45.9062 5.60938 40.4531 2.21875
Q35.0156 -1.17188 29 -1.17188
Q24.6094 -1.17188 21.1094 0.6875
Q17.625 2.54688 15.375 5.375
L15.375 -19.875
z

M14.5469 25.6406
Q14.5469 15.625 18.5938 10.8438
Q22.6562 6.0625 28.4219 6.0625
Q34.2812 6.0625 38.4531 11.0156
Q42.625 15.9688 42.625 26.375
Q42.625 36.2812 38.5469 41.2031
Q34.4688 46.1406 28.8125 46.1406
Q23.1875 46.1406 18.8594 40.8906
Q14.5469 35.6406 14.5469 25.6406" id="ArialMT-70"/>
     <path d="
M7.71875 0
L7.71875 71.5781
L32.375 71.5781
Q40.7188 71.5781 45.125 70.5625
Q51.2656 69.1406 55.6094 65.4375
Q61.2812 60.6406 64.0781 53.1875
Q66.8906 45.75 66.8906 36.1875
Q66.8906 28.0312 64.9844 21.7344
Q63.0938 15.4375 60.1094 11.2969
Q57.125 7.17188 53.5781 4.79688
Q50.0469 2.4375 45.0469 1.21875
Q40.0469 0 33.5469 0
z

M17.1875 8.45312
L32.4688 8.45312
Q39.5469 8.45312 43.5781 9.76562
Q47.6094 11.0781 50 13.4844
Q53.375 16.8438 55.25 22.5312
Q57.125 28.2188 57.125 36.3281
Q57.125 47.5625 53.4375 53.5938
Q49.75 59.625 44.4844 61.6719
Q40.6719 63.1406 32.2344 63.1406
L17.1875 63.1406
z
" id="ArialMT-44"/>
     <path d="
M10.2031 -13.7188
Q9.375 -13.7188 8.82812 -13.0781
Q8.29688 -12.4531 8.29688 -11.7188
Q8.29688 -10.8906 8.82812 -10.2969
Q9.375 -9.71875 10.2031 -9.71875
L67.5781 -9.71875
Q68.3594 -9.71875 68.875 -10.2969
Q69.3906 -10.8906 69.3906 -11.7188
Q69.3906 -12.4531 68.875 -13.0781
Q68.3594 -13.7188 67.5781 -13.7188
z

M9.28125 33.0156
Q8.29688 33.2969 8.29688 34.7188
Q8.29688 35.9844 9.625 36.5312
L66.7031 63.4844
Q66.8906 63.625 67.3906 63.625
Q68.2188 63.625 68.7969 63.0312
Q69.3906 62.4531 69.3906 61.625
Q69.3906 60.2969 68.2188 59.8125
L14.9844 34.7188
L68.5 9.42188
Q69.3906 8.9375 69.3906 7.71875
Q69.3906 6.84375 68.7969 6.28125
Q68.2188 5.71875 67.3906 5.71875
Q66.8906 5.71875 66.7031 5.90625
z
" id="Cmsy10-2219"/>
     <path d="
M14.7031 -18.1094
Q15.0469 -15.9219 16.0156 -15.9219
Q19.625 -15.9219 21.7031 -15.3281
Q23.7812 -14.75 24.4219 -12.5
L28.7188 4.5
Q23 -1.125 17.2812 -1.125
Q10.9844 -1.125 7.39062 3.64062
Q3.8125 8.40625 3.8125 14.8906
Q3.8125 21.2969 7.10938 28.1719
Q10.4062 35.0625 16.0469 39.625
Q21.6875 44.1875 28.2188 44.1875
Q31.25 44.1875 33.6875 42.375
Q36.1406 40.5781 37.4062 37.5938
Q37.9844 38.7656 40.6406 41.4688
Q43.3125 44.1875 44.3906 44.1875
Q45.5156 44.1875 45.5156 42.9219
L31.5 -12.8906
Q31.25 -14.3594 31.2031 -14.5938
Q31.2031 -15.9219 37.7969 -15.9219
Q38.2812 -15.9219 38.5469 -16.3125
Q38.8125 -16.7031 38.8125 -17.1875
Q38.4844 -18.5 38.25 -18.9375
Q38.0312 -19.3906 37.1094 -19.3906
L15.7188 -19.3906
Q14.7031 -19.3906 14.7031 -18.1094
M17.4844 1.51562
Q21 1.51562 24.3438 4.17188
Q27.6875 6.84375 30.1719 10.5
L35.7969 33.0156
Q35.2031 36.5312 33.2188 39.0625
Q31.25 41.6094 27.9844 41.6094
Q24.6094 41.6094 21.7031 38.8438
Q18.7969 36.0781 16.7969 32.3281
Q14.8438 28.3281 13.0625 21.3438
Q11.2812 14.3594 11.2812 10.5
Q11.2812 7.03125 12.7656 4.26562
Q14.2656 1.51562 17.4844 1.51562" id="Cmmi10-71"/>
     <path d="
M12.3594 -21.0469
L6.0625 -21.0469
Q20.6562 2.39062 20.6562 25.875
Q20.6562 35.0625 18.5625 44.0938
Q16.8906 51.4219 13.9219 58.1562
Q12.0156 62.5469 6.0625 72.7969
L12.3594 72.7969
Q21.5312 60.5469 25.9219 48.1875
Q29.6875 37.5469 29.6875 25.9219
Q29.6875 12.75 24.625 0.4375
Q19.5781 -11.8594 12.3594 -21.0469" id="ArialMT-29"/>
     <path d="
M23.3906 -21.0469
Q16.1094 -11.8594 11.0781 0.4375
Q6.0625 12.75 6.0625 25.9219
Q6.0625 37.5469 9.8125 48.1875
Q14.2031 60.5469 23.3906 72.7969
L29.6875 72.7969
Q23.7812 62.6406 21.875 58.2969
Q18.8906 51.5625 17.1875 44.2344
Q15.0938 35.1094 15.0938 25.875
Q15.0938 2.39062 29.6875 -21.0469
z
" id="ArialMT-28"/>
     <path d="
M7.32812 0
L7.32812 71.5781
L16.7969 71.5781
L16.7969 8.45312
L52.0469 8.45312
L52.0469 0
z
" id="ArialMT-4c"/>
     <path d="
M25 -2.20312
Q12.75 -2.20312 8.32812 7.875
Q3.90625 17.9688 3.90625 31.8906
Q3.90625 40.5781 5.48438 48.2344
Q7.07812 55.9062 11.7812 61.25
Q16.5 66.6094 25 66.6094
Q31.5938 66.6094 35.7812 63.375
Q39.9844 60.1562 42.1875 55.0469
Q44.3906 49.9531 45.1875 44.1094
Q46 38.2812 46 31.8906
Q46 23.2969 44.4062 15.7969
Q42.8281 8.29688 38.1875 3.04688
Q33.5469 -2.20312 25 -2.20312
M25 0.390625
Q30.5625 0.390625 33.2969 6.09375
Q36.0312 11.8125 36.6719 18.75
Q37.3125 25.6875 37.3125 33.5
Q37.3125 41.0156 36.6719 47.3594
Q36.0312 53.7188 33.3125 58.8594
Q30.6094 64.0156 25 64.0156
Q19.3438 64.0156 16.6094 58.8281
Q13.875 53.6562 13.2344 47.3281
Q12.5938 41.0156 12.5938 33.5
Q12.5938 27.9375 12.8594 23
Q13.1406 18.0625 14.3125 12.8125
Q15.4844 7.5625 18.0938 3.96875
Q20.7031 0.390625 25 0.390625" id="Cmr10-30"/>
     <path d="
M7.71875 0
L7.71875 71.5781
L34.7188 71.5781
Q41.8438 71.5781 45.6094 70.9062
Q50.875 70.0156 54.4375 67.5469
Q58.0156 65.0938 60.1875 60.6406
Q62.3594 56.2031 62.3594 50.875
Q62.3594 41.75 56.5469 35.4219
Q50.7344 29.1094 35.5469 29.1094
L17.1875 29.1094
L17.1875 0
z

M17.1875 37.5469
L35.6875 37.5469
Q44.875 37.5469 48.7344 40.9688
Q52.5938 44.3906 52.5938 50.5938
Q52.5938 55.0781 50.3125 58.2656
Q48.0469 61.4688 44.3438 62.5
Q41.9375 63.1406 35.5 63.1406
L17.1875 63.1406
z
" id="ArialMT-50"/>
     <path d="
M8.40625 5.51562
Q8.40625 7.76562 10.0625 9.375
Q11.7188 10.9844 13.9219 10.9844
Q15.2812 10.9844 16.5938 10.25
Q17.9219 9.51562 18.6562 8.20312
Q19.3906 6.89062 19.3906 5.51562
Q19.3906 3.32812 17.7656 1.65625
Q16.1562 0 13.9219 0
Q11.7188 0 10.0625 1.65625
Q8.40625 3.32812 8.40625 5.51562" id="Cmmi10-3a"/>
    </defs>
    <g style="fill:#262626;" transform="translate(137.2723125 18.588)scale(0.156 -0.156)">
     <use transform="translate(0.0 0.203125)" xlink:href="#ArialMT-43"/>
     <use transform="translate(72.216796875 0.203125)" xlink:href="#ArialMT-6f"/>
     <use transform="translate(127.83203125 0.203125)" xlink:href="#ArialMT-6e"/>
     <use transform="translate(183.447265625 0.203125)" xlink:href="#ArialMT-74"/>
     <use transform="translate(211.23046875 0.203125)" xlink:href="#ArialMT-69"/>
     <use transform="translate(233.447265625 0.203125)" xlink:href="#ArialMT-67"/>
     <use transform="translate(289.0625 0.203125)" xlink:href="#ArialMT-73"/>
     <use transform="translate(339.0625 0.203125)" xlink:href="#ArialMT-20"/>
     <use transform="translate(366.845703125 0.203125)" xlink:href="#ArialMT-77"/>
     <use transform="translate(439.0625 0.203125)" xlink:href="#ArialMT-69"/>
     <use transform="translate(461.279296875 0.203125)" xlink:href="#ArialMT-74"/>
     <use transform="translate(489.0625 0.203125)" xlink:href="#ArialMT-68"/>
     <use transform="translate(544.677734375 0.203125)" xlink:href="#ArialMT-20"/>
     <use transform="translate(572.4609375 0.203125)" xlink:href="#ArialMT-61"/>
     <use transform="translate(628.076171875 0.203125)" xlink:href="#ArialMT-20"/>
     <use transform="translate(655.859375 0.203125)" xlink:href="#ArialMT-53"/>
     <use transform="translate(722.55859375 0.203125)" xlink:href="#ArialMT-4e"/>
     <use transform="translate(794.775390625 0.203125)" xlink:href="#ArialMT-50"/>
     <use transform="translate(861.474609375 0.203125)" xlink:href="#ArialMT-2d"/>
     <use transform="translate(894.775390625 0.203125)" xlink:href="#ArialMT-70"/>
     <use transform="translate(950.390625 0.203125)" xlink:href="#ArialMT-61"/>
     <use transform="translate(1006.00585938 0.203125)" xlink:href="#ArialMT-69"/>
     <use transform="translate(1028.22265625 0.203125)" xlink:href="#ArialMT-72"/>
     <use transform="translate(1061.5234375 0.203125)" xlink:href="#ArialMT-20"/>
     <use transform="translate(1089.30664062 0.203125)" xlink:href="#ArialMT-66"/>
     <use transform="translate(1117.08984375 0.203125)" xlink:href="#ArialMT-69"/>
     <use transform="translate(1139.30664062 0.203125)" xlink:href="#ArialMT-6c"/>
     <use transform="translate(1161.5234375 0.203125)" xlink:href="#ArialMT-74"/>
     <use transform="translate(1189.30664062 0.203125)" xlink:href="#ArialMT-65"/>
     <use transform="translate(1244.921875 0.203125)" xlink:href="#ArialMT-72"/>
     <use transform="translate(1278.22265625 0.203125)" xlink:href="#ArialMT-65"/>
     <use transform="translate(1333.83789062 0.203125)" xlink:href="#ArialMT-64"/>
     <use transform="translate(1389.453125 0.203125)" xlink:href="#ArialMT-20"/>
     <use transform="translate(1417.23632812 0.203125)" xlink:href="#ArialMT-62"/>
     <use transform="translate(1472.8515625 0.203125)" xlink:href="#ArialMT-79"/>
     <use transform="translate(1522.8515625 0.203125)" xlink:href="#ArialMT-20"/>
     <use transform="translate(1550.63476562 0.203125)" xlink:href="#ArialMT-62"/>
     <use transform="translate(1606.25 0.203125)" xlink:href="#ArialMT-69"/>
     <use transform="translate(1628.46679688 0.203125)" xlink:href="#ArialMT-6e"/>
     <use transform="translate(1684.08203125 0.203125)" xlink:href="#ArialMT-6e"/>
     <use transform="translate(1739.69726562 0.203125)" xlink:href="#ArialMT-65"/>
     <use transform="translate(1795.3125 0.203125)" xlink:href="#ArialMT-64"/>
     <use transform="translate(1850.92773438 0.203125)" xlink:href="#ArialMT-20"/>
     <use transform="translate(1878.7109375 0.203125)" xlink:href="#ArialMT-4c"/>
     <use transform="translate(1934.32617188 0.203125)" xlink:href="#ArialMT-44"/>
     <use transform="translate(2006.54296875 0.203125)" xlink:href="#ArialMT-20"/>
     <use transform="translate(2034.32617188 0.203125)" xlink:href="#ArialMT-28"/>
     <use transform="translate(2067.62695312 0.203125)" xlink:href="#Cmmi10-71"/>
     <use transform="translate(2129.765625 0.203125)" xlink:href="#Cmsy10-2219"/>
     <use transform="translate(2208.40234375 0.203125)" xlink:href="#Cmr10-30"/>
     <use transform="translate(2258.40234375 0.203125)" xlink:href="#Cmmi10-3a"/>
     <use transform="translate(2286.9453125 0.203125)" xlink:href="#Cmr10-30"/>
     <use transform="translate(2336.9453125 0.203125)" xlink:href="#Cmr10-31"/>
     <use transform="translate(2386.9453125 0.203125)" xlink:href="#ArialMT-29"/>
    </g>
   </g>
  </g>
 </g>
 <defs>
  <clipPath id="p379d521dfb">
   <rect height="398.97" width="580.32" x="35.9503125" y="23.588"/>
  </clipPath>
 </defs>
</svg>
